<svg width="696" height="422" viewBox="0 0 696 422" fill="none" xmlns="http://www.w3.org/2000/svg">
<path d="M679.028 3.9882L692.247 17.1213L692.247 404.879L679.028 418.011L18.6001 418.011L5.38226 404.879V395.977L8.06791 394.546V403.774L19.7123 415.343L677.916 415.343L689.561 403.774L689.56 18.2258L677.916 6.65702L19.7122 6.657L8.06782 18.2257L8.06791 394.546L5.38226 395.977L5.38217 17.1213L18.6 3.98818L679.028 3.9882Z" fill="#D6A354"/>
<path d="M690.903 0.875022L686.427 5.32279L690.903 9.77057L695.38 5.32279L690.903 0.875022Z" fill="#D6A354"/>
<path d="M690.903 412.229L686.427 416.677L690.903 421.125L695.38 416.677L690.903 412.229Z" fill="#D6A354"/>
<path d="M5.0977 0.875L0.621094 5.32277L5.0977 9.77054L9.57432 5.32277L5.0977 0.875Z" fill="#D6A354"/>
<path d="M5.0978 412.229L0.621185 416.677L5.0978 421.125L9.57441 416.677L5.0978 412.229Z" fill="#D6A354"/>
</svg>
