<svg width="445" height="349" viewBox="0 0 445 349" fill="none" xmlns="http://www.w3.org/2000/svg">
<path d="M427.838 3.91887L441.057 17.052L441.057 332.699L427.838 345.831L18.2974 345.831L5.07953 332.699V323.797L7.76517 322.366V331.594L19.4096 343.163L426.726 343.163L438.371 331.594L438.37 18.1564L426.726 6.58769L19.4095 6.58766L7.76508 18.1564L7.76517 322.366L5.07953 323.797L5.07944 17.0519L18.2973 3.91884L427.838 3.91887Z" fill="#D6A354"/>
<path d="M439.713 0.805695L435.237 5.25347L439.713 9.70124L444.19 5.25347L439.713 0.805695Z" fill="#D6A354"/>
<path d="M439.713 340.049L435.237 344.497L439.713 348.945L444.19 344.497L439.713 340.049Z" fill="#D6A354"/>
<path d="M4.79497 0.805664L0.318359 5.25344L4.79497 9.70121L9.27158 5.25344L4.79497 0.805664Z" fill="#D6A354"/>
<path d="M4.79506 340.049L0.318451 344.497L4.79506 348.945L9.27167 344.497L4.79506 340.049Z" fill="#D6A354"/>
</svg>
