<svg display="none" xmlns="http://www.w3.org/2000/svg">
  >
  <symbol id="tel" viewBox="0 0 212 268">
    <path
      fill-rule="evenodd"
      clip-rule="evenodd"
      d="M0 76.4688L207.998 20.6104V112.099L0 167.958V76.4688ZM28.5002 85.0997L27.0305 85.4937V97.5584L28.5002 97.1644V91.4305L29.2752 91.2229L31.9561 96.2384L33.5714 95.8058L30.5509 90.1545L33.1999 83.8405L31.5847 84.2731L29.2752 89.7537L28.5002 89.9613V85.0997ZM37.4318 88.4719L36.3981 85.7131L35.4933 83.1777L33.8943 83.6058L36.6723 90.7434L35.3478 95.3295L36.8985 94.9142L40.8394 81.745L39.2887 82.1608L38.3357 85.1778L37.4635 88.4635L37.4315 88.4719H37.4318ZM43.7144 93.0879V82.4122L46.4435 81.681V92.3567L47.9132 91.9627V79.8815L42.2444 81.4002V93.4814L43.7141 93.0879H43.7144ZM51.8059 90.9195L53.6956 84.4697L54.8101 79.9559L54.8583 79.9431L54.6163 84.353V90.1671L56.0861 89.7731V77.7084L54.0994 78.2403L52.7266 82.9371L51.5312 88.2478L51.4829 88.2606L51.7092 83.1284V78.8808L50.2395 79.2748V91.3395L51.8059 90.9198V90.9195ZM66.0191 87.1113V86.0456L67.4725 85.656L69.2975 83.2288V77.1078L67.4725 75.7715L66.0191 76.1611V74.9984L64.5494 75.3924V76.5551L63.0796 76.9491L61.2547 79.263V85.3841L63.0796 86.8336L64.5494 86.4396V87.5053L66.0191 87.1113ZM66.0191 84.5916V77.6148L66.8585 77.3898L67.8278 78.0998V83.0582L66.8428 84.3714L66.0191 84.5919V84.5916ZM63.6934 78.2382L64.5491 78.0086V84.9854L63.7089 85.2103L62.7239 84.4246V79.4662L63.6931 78.2377L63.6934 78.2382ZM75.4186 72.4797L71.6232 73.4972V85.6104L73.0929 85.2163V81.2429L75.4343 80.6156L77.292 78.1638V73.8194L75.4188 72.4797H75.4186ZM73.0929 79.7732V74.5731L74.8208 74.1101L75.8058 74.834V77.9779L74.8046 79.3147L73.0929 79.7732ZM78.6 83.7403L80.0859 83.3424L80.5544 80.0671L83.0736 79.392L83.5421 82.4164L85.0275 82.0179L83.2351 70.3853L80.3927 71.1468L78.5997 83.7403H78.6ZM82.8641 77.9789L80.7647 78.5413L81.6532 72.2844L81.9596 72.2018L82.8644 77.9789H82.8641ZM88.0967 81.1957V75.8659L90.8264 75.1347V80.4646L92.2961 80.0705V68.0058L90.8264 68.3999V73.7297L88.0967 74.4609V69.131L86.627 69.5251V81.5898L88.0967 81.1957ZM94.6218 79.4476L103.521 77.0629V64.9817L102.051 65.3757V76.0677L99.8062 76.6689V65.9769L98.3365 66.3709V77.0629L96.0915 77.6646V66.9889L94.6218 67.3829V79.4476ZM107.413 76.0203L109.302 69.5699L110.417 65.0562L110.465 65.0433L110.223 69.4532V75.2673L111.693 74.8733V62.8086L109.706 63.3411L108.333 68.0373L107.138 73.3485L107.09 73.3614L107.316 68.2292V63.9815L105.846 64.3756V76.4403L107.413 76.0205V76.0203ZM115.504 68.118L116.878 67.7505L117.911 68.4914V70.8008L116.99 72.017L115.973 72.2896L115.068 71.5629V69.9639L113.598 70.3575V72.5376L115.343 73.9277L117.636 73.3131L119.397 70.984V67.4149L118.186 66.544L119.073 65.2402V62.575L117.394 61.1999L115.343 61.7494L113.695 64.0161V65.3406L115.181 64.9421V64.2316L115.956 63.0873L116.78 62.8668L117.587 63.5867V65.0564L116.732 66.3033L115.504 66.6321V68.1175L115.504 68.118ZM124.21 65.2205L123.176 62.4618L122.271 59.9255L120.672 60.3542L123.45 67.4909L122.126 72.0775L123.677 71.6617L127.617 58.4931L126.067 58.9083L125.114 61.9254L124.242 65.2119L124.21 65.2203L124.21 65.2205ZM31.3099 105.907L32.7796 105.513V103.688L31.0192 102.319L28.7255 102.933L26.9655 105.246V113.741L28.7097 115.229L31.0192 114.61L32.7796 112.184V110.278L31.3099 110.688V112.028L30.3732 113.313L29.3557 113.586L28.4347 112.799V105.434L29.3394 104.238L30.3894 103.957L31.3099 104.663V105.907V105.907ZM36.446 106.356V102.432L39.9344 101.497V100.027C37.9802 100.551 36.9303 100.832 34.9761 101.356V113.469L40.1604 112.08V110.61L36.4458 111.605V107.826L39.3692 107.043V105.573L36.4458 106.356L36.446 106.356ZM43.4066 111.21L44.8763 110.816V100.027L47.024 99.4513V98.1268L41.2744 99.6673V100.992L43.4063 100.421V111.21H43.4066ZM50.1574 109.401L52.0471 102.951L53.1616 98.4369L53.2098 98.4241L52.9678 102.833V108.648L54.4375 108.254V96.1894L52.4508 96.7213L51.0781 101.418L49.8826 106.729L49.8344 106.742L50.0607 101.609V97.3618L48.591 97.7558V109.821L50.1574 109.401V109.401ZM65.5978 94.83L63.7728 93.4943L61.4634 94.1127L59.6384 96.4271V104.971L61.4471 106.424L63.7728 105.801L65.5978 103.374V94.83ZM63.1431 104.516L62.0769 104.802L61.0919 104.016V96.6353L62.0606 95.4063L63.1588 95.1121L64.1281 95.8215V103.203L63.1431 104.516ZM67.7787 92.5659V104.679L72.8986 103.307V101.902L69.2485 102.88V92.1722L67.7787 92.5662V92.5659ZM75.9348 101.024V91.8987L77.7115 91.4229L78.6645 92.1043V99.3398L77.7115 100.548L75.9348 101.024ZM74.4651 102.888C75.7413 102.545 77.0333 102.2 78.3255 101.853L80.1342 99.5435V91.1125L78.3255 89.788L74.4651 90.8228V102.887V102.888ZM82.4116 100.758L86.2878 99.7197L88.097 97.426V94.1956L86.8853 93.3247L87.7737 92.0209V89.065L85.965 87.7248L82.4114 88.6772V100.758H82.4116ZM83.8976 93.4959V89.7812L85.3511 89.3916L86.2878 90.0774V91.8379L85.4321 93.0843L83.8976 93.4956V93.4959ZM83.8976 94.9818L85.5773 94.5317L86.611 95.272V97.21L85.6743 98.3981L83.8976 98.874V94.9821V94.9818ZM96.2693 86.6113L94.4443 85.2751L92.1349 85.894L90.31 88.2079V96.7517L92.1187 98.2052L94.4443 97.5817L96.2693 95.1551V86.6113ZM93.8146 96.2971L92.7484 96.5829L91.7634 95.7972V88.4161L92.7321 87.1876L93.8303 86.8934L94.7996 87.6029V94.9839L93.8146 96.2971ZM101.842 91.0616L104.62 82.694L103.069 83.1098L102.084 86.1352L101.115 89.5445L100.162 86.6986L99.1767 84.1525L97.5935 84.5766L100.371 91.4549V95.945L101.841 95.5515V91.0614L101.842 91.0616ZM27.1265 133.61L31.0026 132.572L32.8119 130.278V127.048L31.6001 126.177L32.4886 124.873V121.917L30.6799 120.577L27.1262 121.529V133.61H27.1265ZM28.6125 126.348V122.633L30.0659 122.244L31.0026 122.93V124.69L30.1469 125.936L28.6125 126.348V126.348ZM28.6125 127.834L30.2922 127.384L31.3259 128.124V130.062L30.3892 131.25L28.6125 131.726V127.834V127.834ZM34.2328 131.706L35.7188 131.308L36.1873 128.033L38.7064 127.357L39.1749 130.382L40.6604 129.983L38.8679 118.351L36.0255 119.112L34.2325 131.706H34.2328ZM38.497 125.944L36.3975 126.507L37.286 120.25L37.5925 120.167L38.4972 125.944H38.497ZM43.6976 118.542L45.183 118.144L46.1685 118.869V121.884L45.1673 123.237L43.6976 123.63V118.542V118.542ZM43.6976 125.1L44.9733 124.758L46.863 128.321L48.4782 127.889L46.3305 123.829L47.6388 122.074V117.874L45.781 116.499L42.2281 117.451V129.564L43.6978 129.17V125.1L43.6976 125.1ZM49.9477 127.495L53.8238 126.457L55.633 124.163V120.932L54.4213 120.062L55.3098 118.758V115.802L53.5011 114.462L49.9474 115.414V127.495H49.9477ZM51.4336 120.233V116.518L52.8871 116.129L53.8238 116.814V118.575L52.9681 119.821L51.4336 120.233V120.233ZM51.4336 121.719L53.1133 121.269L54.1471 122.009V123.947L53.2103 125.135L51.4336 125.611V121.719V121.719ZM59.3802 118.249V114.324L62.8686 113.389V111.92C60.9144 112.443 59.8644 112.725 57.9102 113.248V125.361L63.0946 123.972V122.503L59.3799 123.498V119.719L62.3034 118.936V117.466L59.3799 118.249L59.3802 118.249ZM65.9698 112.574L67.4552 112.176L68.4407 112.9V115.915L67.4395 117.268L65.9698 117.662V112.574V112.574ZM65.9698 119.131L67.2455 118.79L69.1352 122.353L70.7504 121.921L68.6027 117.86L69.9109 116.105V111.906L68.0532 110.53L64.5003 111.482V123.595L65.97 123.201V119.131H65.9698ZM73.3346 117.223L71.8811 117.612V119.825L73.6579 121.223L75.9673 120.604L77.744 118.254V114.992L73.4153 113.115V111.435L74.3038 110.244L75.3213 109.972L76.226 110.683V111.942L77.6795 111.553V109.696L75.951 108.35L73.6898 108.956L71.9619 111.227V114.263L76.3063 116.136V118.058L75.3533 119.315L74.2876 119.601L73.3346 118.854V117.223V117.223ZM81.4099 119.065V113.735L84.1396 113.003V118.333L85.6093 117.939V105.874L84.1396 106.268V111.598L81.4099 112.33V107L79.9402 107.394V119.458L81.4099 119.065ZM93.8298 105.303L92.0049 103.967L89.6954 104.586L87.8705 106.9V115.444L89.6792 116.897L92.0049 116.274L93.8298 113.847V105.303ZM91.3751 114.989L90.3089 115.275L89.3239 114.489V107.108L90.2927 105.879L91.3909 105.585L92.3601 106.294V113.675L91.3751 114.989ZM99.8224 102.017L96.027 103.035V115.148L97.4968 114.754V110.781L99.8382 110.153L101.696 107.701V103.357L99.8227 102.017H99.8224ZM97.4968 109.311V104.111L99.2247 103.648L100.21 104.372V107.516L99.2085 108.852L97.4968 109.311Z"
      fill="#F5BE6C"
    />
    <path
      fill-rule="evenodd"
      clip-rule="evenodd"
      d="M142.285 32.9319C140.963 32.0722 139.388 31.5725 137.698 31.5725C134.425 31.5725 131.58 33.4447 130.18 36.1749L142.285 32.9319ZM86.9511 47.759L85.167 40.5825L102.616 43.0893L110.357 27.5192L123.376 37.9985L124.436 37.7146L137.698 19.4753L146.634 31.7668L152.041 30.3178V29.6338L137.698 9.91016L122.84 30.343L108.435 18.7497L99.3906 36.9423L77.6895 33.8248L81.514 49.2159L86.9511 47.759ZM115.19 40.1924V40.0143H109.562V41.7001L115.19 40.1924Z"
      fill="#D8A04D"
    />
    <g filter="url(#filter0_d_681_124)">
      <path
        fill-rule="evenodd"
        clip-rule="evenodd"
        d="M4.69336 69.7993L208 15.3232V106.914L4.69336 161.391V161.389V69.7993Z"
        fill="white"
      />
    </g>
    <path
      fill-rule="evenodd"
      clip-rule="evenodd"
      d="M108.582 133.555C107.661 130.776 106.101 128.229 103.969 126.097L98.3084 120.441L97.2314 121.519C97.4446 118.949 97.3122 116.353 96.7999 113.786L94.7177 103.372L94.4039 103.528C95.1084 101.353 95.4956 99.0716 95.4956 96.7679V90.6563H88.9962C87.2738 90.6563 85.5802 90.9155 83.9482 91.377C84.1228 90.3881 84.241 89.3803 84.241 88.3565C84.241 83.6464 82.4087 79.2195 79.0784 75.8904L72.9872 69.7979L66.8947 75.8904C63.5644 79.2195 61.7339 83.6464 61.7339 88.3565C61.7339 92.1244 62.9378 95.7161 65.081 98.6783C61.9242 97.1452 58.4413 96.2842 54.9209 96.2842H50.4785V102.395C50.4785 108.191 52.8304 113.868 56.9302 117.968C57.2204 118.257 57.5363 118.52 57.8415 118.793H56.1062V126.892C56.1062 131.492 57.8976 135.816 61.1508 139.068C63.0623 140.98 65.3481 142.369 67.8393 143.206L60.4616 145.047L61.079 146.283L92.8018 137.783C93.1925 134.875 94.5169 132.189 96.6258 130.077L98.3084 128.397L99.991 130.08C101.41 131.5 102.474 133.18 103.136 135.013L108.582 133.555ZM137.697 48.4554C142.351 48.4554 146.138 44.6684 146.138 40.0154C146.138 37.0516 144.602 34.4386 142.284 32.9324L130.181 36.1757C129.59 37.3285 129.256 38.6338 129.256 40.0154C129.256 44.6684 133.043 48.4554 137.696 48.4554H137.697ZM137.697 37.201C139.25 37.201 140.51 38.4616 140.51 40.0154C140.51 41.5677 139.25 42.8282 137.697 42.8282C136.143 42.8282 134.882 41.5677 134.882 40.0154C134.882 38.4616 136.143 37.201 137.697 37.201ZM93.3479 73.7766L101.749 69.0804C112.719 62.9485 125.151 59.7087 137.697 59.7087C142.521 59.7087 147.326 60.189 152.041 61.1267V55.3958C147.319 54.5259 142.515 54.0815 137.697 54.0815C124.191 54.0815 110.812 57.5678 99.0031 64.1681L92.0033 68.0855L86.9508 47.7591L81.5139 49.2165L87.6164 73.7766H93.3479ZM123.375 37.9991L123.915 38.4335L124.437 37.7146L123.375 37.9991ZM146.633 31.7674L151.477 38.4306L152.04 37.9784V30.3184L146.633 31.7674ZM92.6807 54.0815H98.3084V48.4554H92.6807V54.0815ZM109.562 45.6426H115.189V40.1926L109.562 41.7006V45.6426ZM91.2815 114.892C92.1283 119.111 91.7272 123.448 90.1298 127.44C88.7762 130.826 86.6081 133.752 83.8498 136.079C83.0985 134.649 82.4161 133.194 81.7643 131.725C81.5596 131.183 81.3058 130.661 81.0528 130.143C81.0394 130.111 81.0315 130.077 81.0184 130.047H81.4269V126.867C81.4269 125.477 81.5957 124.084 81.9371 122.724C83.1286 117.964 86.2977 113.958 90.6465 111.704L91.2813 114.893L91.2815 114.892ZM81.8458 98.451C83.9689 97.0322 86.4403 96.2842 88.9962 96.2842H89.8676V96.7674C89.8676 101.084 88.1177 105.31 85.0655 108.362C82.8885 110.54 80.109 112.041 77.1284 112.73C76.8466 111.815 76.5291 110.917 76.1405 110.05C76.0619 109.209 76.0087 108.362 75.9604 107.515L76.7653 105.101C77.6687 102.393 79.4724 100.029 81.8458 98.4513V98.451ZM77.4629 118.406C77.4579 118.42 77.4495 118.434 77.4456 118.442C77.4433 118.434 77.4401 118.42 77.4401 118.409C77.4495 118.409 77.4548 118.406 77.4632 118.406H77.4629ZM70.8744 79.8678L72.9875 77.7537L75.0987 79.8678C77.3339 82.1009 78.6146 85.1964 78.6146 88.3565C78.6146 92.3777 76.6172 96.1125 73.2719 98.3433L72.9875 98.5323L72.7035 98.3433C69.3564 96.1101 67.3598 92.3753 67.3598 88.3565C67.3598 85.1964 68.6404 82.1007 70.8746 79.8678H70.8744ZM60.9073 113.99C57.8554 110.937 56.1062 106.711 56.1062 102.395V101.954C59.4863 102.184 62.7799 103.402 65.4934 105.436C67.7142 107.099 69.4589 109.29 70.6806 111.755C70.9349 114.112 71.302 116.445 71.7734 118.754C67.7158 118.568 63.7901 116.869 60.9073 113.989V113.99ZM65.1287 135.091C62.9708 132.931 61.7339 129.945 61.7339 126.891V124.42H63.019C66.8813 124.42 70.5113 125.921 73.2425 128.653C74.2954 129.706 75.1511 130.92 75.8309 132.232C76.0566 132.78 76.3214 133.315 76.5577 133.861C76.7388 134.355 76.9173 134.854 77.0442 135.369L77.8226 138.486H73.328C70.2745 138.486 67.2866 137.247 65.1287 135.091Z"
      fill="#666666"
      fill-opacity="0.101961"
    />
    <path
      fill-rule="evenodd"
      clip-rule="evenodd"
      d="M151.898 157.778C151.898 151.587 151.898 151.587 151.898 151.587C152.029 152.232 152.16 152.747 152.16 153.006C152.291 154.167 152.422 156.232 152.552 156.875C152.421 157.006 152.16 157.392 151.898 157.778ZM195.806 281.383C193.89 275.255 191.841 268.762 190.635 265.097C187.495 255.682 181.736 247.039 181.081 244.846C180.69 243.815 180.428 241.75 180.428 238.783C180.428 238.783 180.428 238.783 180.428 234.656C180.69 231.69 181.081 228.078 181.736 224.079C183.699 213.244 187.102 189.639 188.542 183.576C189.981 177.643 191.29 174.161 188.411 161.777C185.401 149.395 184.615 143.848 183.699 140.107C182.783 136.366 181.867 132.11 181.736 129.143C181.605 126.177 181.605 123.725 179.119 120.114C176.632 116.373 173.753 112.116 173.229 111.213C172.707 110.311 171.397 107.086 170.874 106.182C170.743 105.667 170.35 105.28 170.089 104.893C169.827 105.538 169.172 106.312 168.256 106.441C168.125 106.569 168.125 106.569 167.995 106.569C167.472 106.569 166.817 106.312 166.294 105.667C164.461 103.732 162.106 99.2172 161.713 97.0239C161.451 94.7021 162.89 90.7036 163.545 89.1557C164.33 87.2207 164.592 85.4154 164.723 84.8989C164.723 84.3832 164.592 83.996 164.592 83.7378C164.33 83.2221 163.545 81.6748 161.321 81.6748C161.19 81.6748 161.19 81.6748 161.058 81.8032C158.179 81.9322 152.421 82.4487 149.018 90.0586C145.746 97.5401 146.924 110.051 147.972 115.212C148.888 120.5 149.672 124.885 149.804 126.434C150.065 127.723 150.589 128.626 151.112 129.271C153.076 130.948 154.646 130.69 155.692 130.561C156.085 130.433 156.347 130.433 156.609 130.433C156.609 130.433 156.609 130.433 156.479 131.464C156.347 131.464 156.085 131.464 155.824 131.593C155.431 131.593 154.908 131.722 154.384 131.722C153.73 131.722 152.945 131.593 152.029 131.077C152.029 131.464 152.029 131.851 152.029 132.109C151.898 132.625 150.589 135.204 151.244 138.945C151.636 141.525 152.029 145.652 152.16 148.104C152.421 149.136 153.076 151.843 153.207 153.005C153.337 154.295 153.598 157.004 153.598 157.004C153.598 157.004 153.598 157.004 153.598 157.133C153.598 157.133 153.598 157.133 153.468 157.261C153.468 157.391 152.683 158.422 151.898 159.583C151.898 159.583 151.898 159.583 151.898 198.28C151.898 206.793 144.83 213.758 136.193 213.758C136.193 213.758 136.193 213.758 61.2034 213.758C59.6338 213.758 58.0629 213.501 56.6239 213.113C57.2783 214.274 57.8008 215.306 58.193 215.822C58.9792 216.983 60.6807 220.079 60.6807 220.079C60.6807 220.079 60.8115 221.111 61.0729 221.756C61.4664 222.4 63.0355 224.852 66.4387 229.237C67.4852 230.656 69.0562 232.591 70.6263 234.655C70.6263 234.655 70.6263 234.655 73.7668 238.782C76.7765 242.524 79.9183 246.263 82.4049 249.101C87.508 254.777 90.5188 256.196 91.8275 257.357C93.1363 258.517 99.9413 264.967 100.988 266.644C102.036 268.321 101.905 269.353 102.559 270.126C103.213 270.901 106.485 275.931 108.578 279.286C108.838 279.701 109.071 280.44 109.281 281.382H106.137C106.081 281.205 106.022 281.062 105.962 280.962C103.475 277.092 100.596 272.706 100.203 272.191C99.4178 271.288 99.1559 270.514 98.8937 269.739C98.7634 269.353 98.6329 268.837 98.3717 268.321C97.5855 267.16 91.5648 261.355 89.7331 259.679C89.4714 259.55 89.0792 259.291 88.687 258.905C86.9848 257.743 84.1059 255.68 80.0488 251.166C77.0386 247.812 73.1129 243.039 69.8411 238.782C69.8411 238.782 69.8411 238.782 66.7006 234.655C65.9149 233.624 65.1297 232.72 64.4753 231.946C64.4753 231.946 64.4753 231.946 63.9517 231.172C60.4185 226.657 58.7173 223.949 58.3246 223.046C57.9311 222.401 57.8005 221.627 57.6697 221.111C57.1467 220.079 56.0993 218.273 55.5763 217.5C55.1828 216.983 54.7906 216.21 54.0048 214.791C53.6126 214.017 52.828 212.468 52.4352 211.824C52.043 211.696 51.3887 211.437 50.8643 211.179C49.1634 210.405 46.9386 209.502 45.6294 208.599C43.536 207.179 38.8248 204.73 37.6469 204.342C35.6838 203.956 32.4124 202.149 31.4954 201.504C31.4954 201.504 31.3646 201.504 31.2337 201.376C29.5323 200.602 25.7374 198.796 23.9056 194.926C21.5498 189.896 23.1199 185.897 24.9522 182.285C25.0836 181.77 25.3449 181.382 25.4758 180.996C26.6531 178.544 27.4378 176.996 29.2712 175.836C29.0095 175.45 28.7471 175.062 28.6163 174.675C28.4854 174.159 27.8311 173.385 27.3075 172.482C25.2141 169.515 22.0726 165.001 22.8588 159.712C23.0276 158.475 23.2366 157.361 23.4728 156.357L26.9056 155.438C26.4964 156.706 26.1306 158.244 25.868 160.1C25.2141 165.259 29.532 169.903 31.1034 172.74C31.1034 172.74 33.1969 175.836 40.2628 175.19C40.9182 175.19 41.5726 175.062 42.227 174.934C43.0116 174.804 43.667 174.675 44.3204 174.417C46.1532 173.773 47.9857 172.225 49.4245 168.871C51.9117 163.324 50.3405 158.423 48.7696 155.714C48.7696 155.585 48.6393 155.456 48.6393 155.456C47.1998 153.52 45.4983 152.876 45.4983 150.682V150.455L49.9486 149.262V149.651C49.9486 154.647 55.8783 154.726 52.4347 169.515C52.1731 170.676 52.0425 171.708 51.7798 172.482C51.7798 172.482 51.7798 172.482 51.7798 182.673C51.7798 183.059 51.7798 183.446 51.7798 183.833C51.7798 184.22 51.7798 184.736 51.7798 185.253C51.7798 186.283 51.9117 187.703 51.7798 189.251V193.167C51.3066 193.996 50.8809 194.896 50.7372 195.699L50.7333 195.7C50.7333 195.7 50.7333 195.7 50.7333 194.668C50.6024 195.184 50.3405 195.829 50.2097 196.345C49.817 197.377 49.2937 198.28 48.6393 199.054C49.0315 205.503 54.5281 210.663 61.2024 210.663C61.2024 210.663 61.2024 210.663 136.192 210.663C143.128 210.663 148.755 205.116 148.755 198.28C148.755 181.14 151.096 154.221 148.1 139.461C147.578 135.72 148.494 132.882 148.886 131.721C148.886 131.593 148.886 131.593 148.886 131.593C141.725 123.137 141.684 93.1556 147.889 85.7326C148.163 85.315 148.449 84.9133 148.755 84.5114V83.5752C148.933 82.5431 148.921 81.2351 148.755 79.7321V16.6627C148.755 9.82614 143.128 4.28025 136.192 4.28025C136.192 4.28025 136.192 4.28025 61.2024 4.28025C54.2665 4.28025 48.6393 9.82614 48.6393 16.6627V58.0225L44.4085 59.1556C44.6746 58.7668 45.0668 58.4682 45.4983 58.3261C45.4983 58.3261 45.4983 58.3261 45.4983 53.9408C44.7131 53.6831 44.0587 52.9087 44.0587 52.0063C44.0587 52.0063 44.0587 52.0063 44.0587 42.719C44.0587 41.8161 44.7131 41.0422 45.4983 40.784C45.4983 40.784 45.4983 40.784 45.4983 16.6627C45.4983 8.15037 52.4347 1.18457 61.2024 1.18457C61.2024 1.18457 61.2024 1.18457 136.192 1.18457C144.829 1.18457 151.897 8.15037 151.897 16.6627C151.897 16.6627 151.897 16.6627 151.897 39.1071C152.158 39.3654 152.289 39.7526 152.289 40.2677C152.289 40.2677 152.289 40.2677 152.289 49.426C152.289 49.943 152.158 50.3295 151.897 50.7167C151.897 50.7167 151.897 50.7167 151.897 81.545C152.551 81.0288 153.205 80.6421 153.859 80.3833C156.477 78.9653 158.963 78.707 160.926 78.707C161.057 78.707 161.189 78.5786 161.32 78.5786C164.067 78.5786 165.769 79.9966 166.815 81.4155C167.077 81.545 167.47 81.8027 167.731 82.0609C168.779 83.0923 169.171 84.5117 169.695 87.6079C169.957 89.5424 171.789 99.7321 172.443 102.827C172.835 103.344 173.359 103.988 173.752 104.763C174.014 105.15 174.276 105.795 174.537 106.569C174.93 107.472 175.715 109.149 175.977 109.665C176.369 110.31 178.594 113.663 181.735 118.308C184.614 122.563 184.745 125.659 184.876 128.626C184.876 128.626 184.876 128.626 184.876 129.013C185.007 131.207 185.531 134.56 186.709 139.332C187.1 140.88 187.494 142.557 187.885 144.62C188.54 148.361 189.588 153.263 191.42 161.132C194.299 173.128 193.252 177.384 191.943 182.802C191.812 183.317 191.681 183.834 191.55 184.349C190.766 187.833 189.195 197.893 187.625 207.567C186.577 214.146 185.531 220.208 184.876 224.594C184.091 228.464 183.828 231.817 183.698 234.655C183.698 234.655 183.698 234.655 183.567 238.782C183.567 241.492 183.829 243.168 184.091 243.942C184.222 244.458 185.138 246.134 185.922 247.554C188.148 251.552 191.42 257.614 193.645 264.194C194.283 266.108 198.229 275.954 200.235 281.382H195.805L195.806 281.383ZM47.3327 206.021C46.1548 205.246 43.93 203.957 41.8363 202.925C43.1451 202.667 44.5841 202.151 45.7615 201.377C46.155 203.183 46.8094 204.731 47.7251 206.278C47.5938 206.15 47.4635 206.02 47.3329 206.02L47.3327 206.021ZM34.5074 199.701C33.8531 199.313 33.4595 199.055 33.1982 198.926C32.6746 198.539 28.3567 197.12 26.6545 193.638C25.0849 190.026 25.8693 187.316 27.701 183.576C29.5333 179.965 29.9268 178.805 31.7586 177.901C32.8052 177.513 33.8531 177.127 34.7683 176.998C35.5535 176.869 36.4698 176.74 37.5166 176.74C38.5645 176.74 39.7419 176.74 40.9198 176.74C41.0501 176.74 41.0501 176.74 41.0501 176.74C45.4999 177.127 45.4999 177.127 45.4999 177.127C46.1548 177.385 46.9399 177.772 47.5938 178.288C48.6409 179.707 48.6409 181.9 48.6409 183.835C48.6409 186.672 49.1644 190.026 47.2013 195.314C45.2382 200.604 35.9457 200.474 34.5074 199.701V199.701ZM50.7348 175.451C50.7348 177.513 50.7348 177.513 50.7348 177.513C50.4727 177.127 50.2113 176.74 49.9502 176.352C50.211 176.096 50.4727 175.837 50.7348 175.451ZM165.77 84.5127C166.032 85.0284 166.294 86.0606 166.556 88.1241C166.948 90.3166 169.042 101.926 169.435 103.989C169.304 104.377 168.781 105.409 168.126 105.538C167.733 105.538 167.472 105.409 167.079 105.022C165.116 102.959 163.022 98.7018 162.76 96.8954C162.499 94.7029 164.069 90.7041 164.462 89.415C165.378 87.351 165.64 85.4159 165.64 84.8994C165.771 84.7704 165.771 84.6417 165.771 84.5127H165.77Z"
      fill="#D8A04D"
    />
    <path
      d="M150.709 154.099V144.624L150.601 143.492C150.446 141.951 150.26 140.382 150.069 139.122C149.468 135.643 150.411 133.091 150.793 132.062L150.84 131.925V130.57C150.676 130.448 150.51 130.317 150.341 130.172L150.262 130.104L150.193 130.019C149.884 129.639 149.571 129.176 149.296 128.615C149.027 128.065 148.795 127.419 148.643 126.666L148.62 126.532C148.51 125.24 147.916 121.825 147.173 117.549L146.802 115.413C146.174 112.293 145.501 106.588 145.739 100.881C145.906 96.8511 146.527 92.7969 147.931 89.5864L147.936 89.577C149.771 85.473 152.272 83.265 154.709 82.064C156.922 80.9742 159.041 80.7306 160.568 80.6431C160.767 80.4881 160.898 80.4876 161.319 80.4876C162.884 80.4876 163.911 81.0617 164.58 81.702V80.8074C164.429 80.6942 164.269 80.587 164.102 80.4876C163.414 80.0807 162.563 79.8012 161.512 79.7708C161.356 79.8403 161.181 79.8967 160.926 79.8967C159.996 79.8967 158.954 79.9557 157.87 80.1751C156.786 80.3945 155.622 80.7783 154.42 81.4288L154.295 81.4893C154.02 81.5981 153.747 81.7329 153.479 81.8912C153.186 82.064 152.902 82.2598 152.63 82.4748L150.709 83.9923V50.3569L150.913 50.0549C151.038 49.8698 151.101 49.6811 151.101 49.4275V40.2692C151.101 40.1368 151.09 40.0375 151.068 39.973L151.066 39.9533L150.709 39.6004V16.6644C150.709 12.7366 149.078 9.16565 146.452 6.57779C143.822 3.98443 140.189 2.37445 136.192 2.37445H61.2026C57.1579 2.37445 53.5371 3.9721 50.9254 6.54659C48.2984 9.1355 46.6866 12.7193 46.6866 16.6647V41.6427L45.865 41.9133C45.6922 41.9699 45.5294 42.0905 45.4114 42.2489C45.3105 42.3847 45.2471 42.5485 45.2471 42.7208V52.0081C45.2471 52.1798 45.3105 52.3442 45.4114 52.48C45.5286 52.6378 45.6914 52.7584 45.865 52.815L46.6866 53.085V57.3193L47.4516 57.1146V16.6644C47.4516 12.9178 48.9955 9.52298 51.4895 7.0649C53.9786 4.61232 57.4143 3.09384 61.2029 3.09384H136.192C139.981 3.09384 143.417 4.61258 145.906 7.0649C148.4 9.52298 149.943 12.9178 149.943 16.6644V79.6919C150.028 80.4792 150.072 81.2083 150.072 81.8666C150.072 82.5097 150.03 83.1114 149.943 83.6614V84.9033C149.573 85.3904 149.169 86.0482 148.799 86.4954C145.81 90.0709 144.365 99.4536 144.57 108.904C144.766 117.934 146.477 126.915 149.791 130.829L150.075 131.164V131.906L150.01 132.099C149.826 132.646 149.516 133.588 149.32 134.811C149.123 136.034 149.032 137.561 149.275 139.3C150.112 143.463 150.535 148.551 150.709 154.099L150.709 154.099ZM194.673 281.736C193.527 278.069 192.43 274.576 191.606 271.983C190.866 269.652 190.147 267.416 189.506 265.468C187.483 259.386 184.314 253.581 182.2 249.708C181.058 247.616 180.209 246.062 179.949 245.202C179.724 244.582 179.539 243.695 179.417 242.565C179.304 241.511 179.239 240.243 179.239 238.783C179.239 237.507 179.135 235.774 179.244 234.554C179.374 233.073 179.539 231.419 179.755 229.615C179.965 227.859 180.23 225.945 180.566 223.889L180.57 223.87C181.382 219.389 182.454 212.64 183.527 205.87C185.034 196.372 186.547 186.829 187.385 183.302L187.687 182.088C188.951 176.993 189.87 173.292 187.254 162.042C185.308 154.027 184.297 148.922 183.579 145.295C183.172 143.235 182.856 141.644 182.548 140.385C182.084 138.488 181.619 136.464 181.258 134.553C180.889 132.605 180.62 130.743 180.552 129.194L180.536 128.816C180.425 126.197 180.329 123.96 178.144 120.787L175.941 117.486C174.162 114.825 172.588 112.471 172.203 111.807C171.924 111.325 171.446 110.25 170.971 109.177C170.587 108.312 170.202 107.446 169.949 106.961C169.627 107.209 169.253 107.409 168.835 107.527C168.578 107.758 168.476 107.758 167.994 107.758C167.536 107.758 167.023 107.641 166.526 107.378C166.139 107.172 165.755 106.871 165.412 106.46C164.437 105.423 163.344 103.751 162.445 102.054C161.515 100.298 160.769 98.4657 160.548 97.2333L160.534 97.1541C160.413 96.08 160.592 94.7521 160.897 93.4424C161.33 91.582 162.035 89.6923 162.448 88.7121C163.033 87.2625 163.31 85.8919 163.461 85.145L163.532 84.7966C163.524 84.6277 163.495 84.4665 163.472 84.3302L163.43 84.0777C163.2 83.6737 162.701 83.0002 161.65 82.8817L161.564 82.9664L161.109 82.9871C159.776 83.0466 157.775 83.1953 155.758 84.1886C153.748 85.1791 151.669 87.0344 150.103 90.5326C148.83 93.4473 148.262 97.2063 148.106 100.974C147.876 106.497 148.526 111.998 149.132 114.981L149.511 117.149C150.258 121.449 150.857 124.891 150.982 126.294C151.091 126.79 151.245 127.214 151.422 127.576C151.585 127.908 151.773 128.195 151.963 128.44C153.428 129.649 154.628 129.499 155.45 129.396C155.68 129.33 155.882 129.292 156.07 129.272C156.302 129.247 156.457 129.246 156.609 129.246H157.951L157.521 132.653L156.348 132.657L156.094 132.783H155.824C155.688 132.783 155.528 132.804 155.358 132.826C155.047 132.866 154.71 132.911 154.383 132.911C153.992 132.911 153.554 132.872 153.063 132.755L153.013 132.883C152.697 133.735 151.908 135.863 152.412 138.742L152.417 138.77C152.602 139.988 152.793 141.611 152.958 143.26C153.127 144.951 153.264 146.643 153.335 147.919C153.5 148.575 153.787 149.758 154.022 150.857C154.187 151.631 154.328 152.372 154.385 152.877C154.385 154.377 154.786 156.027 154.786 157.627L154.415 157.993C154.248 158.295 154.004 158.638 153.72 159.04L153.086 159.949V198.282C153.086 202.866 151.181 207.035 148.115 210.058C145.053 213.075 140.832 214.948 136.193 214.948H61.2031C60.4483 214.948 59.6812 214.89 58.9196 214.788C59.0009 214.92 59.0727 215.029 59.1346 215.11L59.1716 215.161C60.0336 216.434 61.7109 219.493 61.7157 219.501L61.8087 219.667L61.8452 219.849C61.8452 219.851 61.9951 220.804 62.1453 221.24C62.4214 221.685 63.0826 222.708 64.2817 224.379C65.0617 225.474 66.0805 226.846 67.3756 228.515L67.3942 228.539C67.9778 229.33 68.6793 230.226 69.4488 231.208C70.0898 232.026 70.7783 232.905 71.5656 233.94L74.7006 238.055C76.1417 239.847 77.6368 241.666 79.0882 243.399C80.6253 245.235 82.0593 246.912 83.285 248.311C87.0109 252.453 89.5867 254.269 91.1828 255.394C91.7598 255.8 92.2176 256.123 92.6116 256.473C93.4366 257.204 96.3913 259.984 98.7534 262.38C100.254 263.9 101.547 265.301 101.995 266.02C102.629 267.035 102.879 267.82 103.084 268.466C103.203 268.857 103.305 269.175 103.463 269.363C103.792 269.751 104.701 271.088 105.793 272.749C107.053 274.667 108.51 276.939 109.585 278.662C109.768 278.954 109.931 279.328 110.076 279.768C110.198 280.136 110.319 280.598 110.436 281.129L110.758 282.572H105.275L105.01 281.746L104.948 281.58C103.596 279.474 102.271 277.435 101.299 275.955C100.258 274.375 99.4764 273.203 99.2772 272.933C98.8216 272.402 98.5146 271.91 98.2849 271.439C98.061 270.979 97.9155 270.55 97.7708 270.122L97.668 269.801C97.582 269.527 97.4821 269.206 97.3442 268.919C97.0047 268.465 95.911 267.329 94.6017 266.019C92.5993 264.016 90.1677 261.689 89.0485 260.657C88.8807 260.564 88.6938 260.445 88.5018 260.304C88.3217 260.171 88.1293 260.012 87.9384 259.83C87.0854 259.247 85.9449 258.436 84.486 257.195C82.9971 255.928 81.218 254.243 79.1674 251.961C77.6942 250.32 75.9639 248.293 74.177 246.124C72.3772 243.941 70.551 241.65 68.904 239.508L65.7591 235.376C65.1215 234.539 64.4695 233.771 63.8943 233.094C63.5015 232.631 63.3269 232.367 62.9683 231.837C61.4367 229.877 60.248 228.257 59.3624 226.978C58.216 225.323 57.544 224.188 57.273 223.598C56.8745 222.917 56.7111 222.219 56.5821 221.666L56.5546 221.534C56.3061 221.051 55.9524 220.417 55.5995 219.806C55.2262 219.163 54.8492 218.544 54.5928 218.165C54.2538 217.706 53.9345 217.124 53.4351 216.213C53.2723 215.918 53.0937 215.615 52.944 215.315C52.6179 214.676 52.0259 213.508 51.628 212.796L51.1946 212.625C50.9049 212.506 50.6037 212.373 50.3405 212.244L49.2955 211.78C47.7751 211.106 46.1022 210.365 44.9568 209.576C44.0107 208.934 42.4846 208.06 41.0128 207.276C39.4398 206.437 37.9554 205.71 37.343 205.493C36.4524 205.307 35.3686 204.887 34.3309 204.409C32.9582 203.776 31.6293 203.019 30.972 202.584C30.8603 202.541 30.7408 202.483 30.6218 202.402C29.721 201.99 28.337 201.322 26.9134 200.265C25.392 199.136 23.8471 197.575 22.8341 195.434C21.5434 192.673 21.3295 190.189 21.6897 187.895C22.0355 185.694 22.9001 183.726 23.8363 181.869C23.9386 181.518 24.0731 181.235 24.1984 180.971C24.2634 180.829 24.3269 180.697 24.3533 180.618L24.4089 180.489C25.0229 179.209 25.537 178.163 26.1492 177.266C26.5954 176.612 27.0885 176.041 27.692 175.53C27.6168 175.379 27.5494 175.223 27.4938 175.058L27.4663 174.97C27.4343 174.843 27.2086 174.508 26.9478 174.119C26.743 173.814 26.5196 173.483 26.3141 173.132C25.2429 171.614 23.9092 169.701 22.9177 167.444C21.8913 165.105 21.2553 162.441 21.6853 159.543C21.7728 158.921 21.8698 158.317 21.9765 157.737C22.0893 157.121 22.2044 156.575 22.3179 156.091L22.1372 156.912L28.2678 155.075L28.0336 155.803C27.8294 156.436 27.637 157.136 27.4658 157.906C27.3088 158.611 27.1656 159.396 27.0427 160.265C26.5975 163.821 28.9457 167.305 30.7112 169.925C31.2392 170.708 31.7203 171.422 32.1035 172.104C32.3332 172.402 34.2127 174.558 40.1568 174.015L40.2606 174.005C40.5338 174.005 40.8049 173.978 41.0744 173.939C41.3617 173.898 41.6811 173.835 42.0004 173.772L42.0373 173.768C42.3863 173.711 42.7164 173.65 43.0543 173.571C43.3393 173.504 43.6127 173.423 43.8848 173.315L43.9315 173.302C44.6847 173.038 45.445 172.58 46.1717 171.837C46.9422 171.05 47.6779 169.941 48.3346 168.41L48.344 168.391C49.3188 166.217 49.6163 164.153 49.5248 162.31C49.4014 159.829 48.5724 157.738 47.7447 156.31L47.5819 156.029C47.1976 155.532 46.7789 155.114 46.3912 154.729C45.2492 153.592 44.3109 152.658 44.3109 150.686L51.1374 148.947V149.654C51.1374 150.986 51.7048 151.968 52.3563 153.096C53.967 155.882 56.0064 159.413 53.5908 169.788C53.5061 170.157 53.4254 170.575 53.3507 170.967C53.2316 171.588 53.1234 172.152 52.9684 172.662V185.256C52.9684 185.671 52.9786 185.957 52.9891 186.262C53.0201 187.157 53.0565 188.199 52.9684 189.29V193.476L52.8101 193.755C52.5956 194.131 52.3909 194.524 52.226 194.91C52.0729 195.269 51.9554 195.612 51.9022 195.912L51.7714 196.642L51.3186 196.771C51.1031 197.34 50.8454 197.881 50.5486 198.394C50.3381 198.757 50.1082 199.103 49.8589 199.431C50.1383 202.17 51.4437 204.63 53.3905 206.429C55.4333 208.317 58.1848 209.478 61.2031 209.478H136.193C139.339 209.478 142.186 208.222 144.245 206.194C146.297 204.171 147.568 201.373 147.568 198.283C147.568 193.428 147.767 187.568 147.976 181.417C148.479 166.591 149.04 150.044 146.941 139.696L146.927 139.627C146.648 137.626 146.754 135.861 146.982 134.441C147.155 133.366 147.397 132.497 147.593 131.873C144.167 127.327 142.404 118.114 142.205 108.952C141.99 99.059 143.606 89.1014 146.927 85.0422L147.342 84.439L147.568 84.1281V83.4894L147.587 83.3793C147.661 82.9483 147.697 82.44 147.697 81.8684C147.697 81.2445 147.656 80.5731 147.577 79.8655C145.781 63.5877 147.568 34.345 147.568 16.6663C147.568 13.5764 146.298 10.7788 144.245 8.75614C142.186 6.72801 139.34 5.47196 136.193 5.47196H61.2034C58.0566 5.47196 55.2097 6.72801 53.1512 8.75614C51.0989 10.7788 49.8282 13.5764 49.8282 16.6663V57.7073L42.6508 59.6306L43.4302 58.4907C43.6311 58.1965 43.8864 57.9312 44.1772 57.7099L44.3106 57.6135V54.6628C44.0052 54.4536 43.732 54.1919 43.5091 53.8928C43.1164 53.3642 42.871 52.7125 42.871 52.0099V42.7226C42.871 42.0195 43.1156 41.3685 43.5091 40.8397C43.732 40.5401 44.0052 40.2784 44.3106 40.0692V16.6663C44.3106 12.0671 46.194 7.88443 49.2643 4.85902C52.3064 1.8606 56.5135 0 61.2029 0H136.192C140.832 0 145.053 1.87319 148.114 4.89048C151.181 7.91248 153.085 12.0817 153.085 16.6663V38.7201C153.177 38.8721 153.253 39.037 153.313 39.2145C153.423 39.5349 153.478 39.8886 153.478 40.2713V49.4296C153.478 50.0615 153.347 50.5661 153.085 51.0488V79.4261L153.376 79.3015C154.765 78.5601 156.128 78.1158 157.407 77.857C158.624 77.6106 159.738 77.5327 160.72 77.5235C160.876 77.4527 161.051 77.394 161.32 77.394C162.927 77.394 164.24 77.8161 165.309 78.4479C166.271 79.0158 167.022 79.7527 167.607 80.5015C167.733 80.5757 167.866 80.6604 167.993 80.7495C168.187 80.8864 168.387 81.0481 168.562 81.2204C169.225 81.8718 169.675 82.6285 170.032 83.6834C170.35 84.6217 170.592 85.8064 170.864 87.4167L170.869 87.4537C171.004 88.446 171.543 91.5655 172.124 94.7826C172.648 97.6913 173.214 100.711 173.55 102.334C173.942 102.845 174.412 103.459 174.788 104.19C174.947 104.44 175.097 104.733 175.235 105.06C175.377 105.391 175.514 105.762 175.648 106.157C175.803 106.509 176.064 107.078 176.335 107.662C176.622 108.285 176.895 108.857 177.026 109.118C177.251 109.478 177.938 110.522 178.979 112.084C179.893 113.457 181.161 115.344 182.718 117.648C185.772 122.16 185.92 125.425 186.058 128.548C186.07 128.703 186.064 128.86 186.064 129.016C186.133 130.117 186.308 131.537 186.623 133.317C186.914 134.95 187.317 136.854 187.858 139.048C188.048 139.793 188.244 140.6 188.453 141.526C188.653 142.416 188.853 143.367 189.05 144.405L189.054 144.419C189.382 146.291 189.805 148.44 190.371 151.085C190.936 153.726 191.655 156.912 192.575 160.865C195.505 173.095 194.446 177.484 193.106 183.03L192.7 184.64C192.063 187.477 190.907 194.653 189.656 202.417L188.793 207.756C188.334 210.641 187.907 213.235 187.509 215.655C186.953 219.035 186.451 222.084 186.05 224.769L186.036 224.829C185.655 226.709 185.398 228.483 185.22 230.14C185.041 231.801 184.944 233.323 184.881 234.709L184.751 238.785C184.755 239.993 184.805 240.963 184.882 241.72C184.971 242.606 185.094 243.211 185.214 243.565L185.241 243.653C185.281 243.81 185.509 244.276 185.815 244.865C186.176 245.559 186.587 246.309 186.961 246.986C188.084 249.008 189.473 251.548 190.851 254.394C192.243 257.27 193.638 260.478 194.767 263.816V263.826C195.064 264.717 196.203 267.638 197.512 270.998C198.853 274.438 200.373 278.337 201.348 280.977L201.938 282.573H194.934L194.673 281.738V281.736ZM193.861 271.268C194.855 274.398 195.815 277.447 196.675 280.195H198.524C197.558 277.636 196.373 274.593 195.303 271.85C193.999 268.503 192.865 265.595 192.524 264.574C191.427 261.337 190.071 258.22 188.716 255.423C187.347 252.596 185.987 250.107 184.888 248.131L184.883 248.126C184.474 247.385 184.034 246.585 183.709 245.959C183.337 245.244 183.046 244.622 182.948 244.261C182.787 243.764 182.631 242.997 182.525 241.951C182.437 241.081 182.379 240.023 182.379 238.784C182.516 237.779 182.515 235.684 182.515 234.606C182.582 233.156 182.682 231.578 182.863 229.888C183.043 228.209 183.308 226.389 183.704 224.424C184.063 222.004 184.59 218.81 185.171 215.273C185.59 212.726 186.04 209.998 186.456 207.383L187.318 202.044C188.582 194.202 189.749 186.956 190.395 184.091C190.478 183.629 190.67 182.931 190.806 182.471C192.071 177.233 193.072 173.086 190.269 161.407L190.264 161.403C189.354 157.489 188.632 154.288 188.051 151.575C187.473 148.87 187.044 146.695 186.717 144.826C186.526 143.809 186.333 142.892 186.142 142.044C185.959 141.231 185.761 140.423 185.559 139.622C184.994 137.328 184.579 135.373 184.286 133.724C183.951 131.835 183.766 130.298 183.694 129.084L183.689 128.628C183.569 125.843 183.43 122.93 180.752 118.973C179.339 116.884 178.045 114.954 177.003 113.391C175.931 111.782 175.205 110.671 174.966 110.278L174.92 110.2C174.773 109.909 174.481 109.298 174.185 108.662C173.943 108.146 173.671 107.549 173.452 107.043L173.415 106.951C173.292 106.587 173.171 106.257 173.055 105.986C172.951 105.74 172.855 105.546 172.774 105.428L172.695 105.298C172.394 104.704 171.992 104.181 171.659 103.747L171.339 103.335L171.284 103.07C170.971 101.588 170.365 98.3533 169.795 95.1981C169.21 91.9561 168.669 88.8271 168.527 87.8042C168.276 86.3193 168.058 85.2438 167.787 84.4419C167.557 83.7545 167.286 83.2847 166.902 82.9069L166.897 82.9019C166.833 82.8379 166.735 82.7611 166.63 82.6869C166.501 82.5959 166.379 82.522 166.292 82.4793L166.032 82.3503L165.936 82.2208L166.828 83.9797C166.998 84.3171 167.163 84.794 167.318 85.4787C167.454 86.083 167.59 86.8874 167.726 87.9531L169.593 98.2898L170.535 103.436L171.072 104.23L171.261 104.489C171.53 104.839 171.815 105.212 171.98 105.735C172.265 106.268 172.699 107.245 173.132 108.221C173.571 109.211 174.011 110.201 174.254 110.62C174.612 111.239 176.16 113.553 177.909 116.169L180.107 119.46C182.665 123.186 182.775 125.736 182.902 128.714L182.918 129.092C182.981 130.51 183.236 132.261 183.587 134.117C183.946 136.01 184.398 137.986 184.85 139.829C185.198 141.255 185.508 142.818 185.908 144.841C186.633 148.5 187.653 153.651 189.561 161.5L189.566 161.514C192.308 173.308 191.332 177.241 189.988 182.655L189.694 183.85C188.856 187.391 187.357 196.839 185.865 206.242C184.796 212.988 183.727 219.715 182.903 224.27C182.587 226.213 182.327 228.105 182.113 229.895C181.907 231.616 181.745 233.233 181.615 234.703V238.784C181.615 240.193 181.673 241.374 181.775 242.316C181.878 243.278 182.023 243.987 182.19 244.429L182.218 244.508C182.41 245.152 183.206 246.61 184.279 248.577C186.431 252.52 189.657 258.43 191.757 264.727C192.228 266.144 192.973 268.469 193.862 271.269L193.861 271.268ZM150.709 198.281V169.218C150.618 173.332 150.478 177.474 150.341 181.489C150.138 187.487 149.943 193.204 149.943 198.281C149.943 202.028 148.4 205.423 145.906 207.881C143.417 210.334 139.981 211.853 136.192 211.853H61.2029C57.5684 211.853 54.2523 210.451 51.7853 208.172C49.2976 205.872 47.6726 202.677 47.4566 199.126L47.4275 198.654L47.735 198.291C48.0174 197.957 48.2722 197.593 48.4977 197.205C48.7142 196.83 48.9095 196.42 49.0802 195.979C49.1544 195.701 49.2519 195.415 49.3484 195.129C49.4349 194.878 49.5207 194.625 49.5831 194.378L50.5921 190.411L50.5971 189.155C50.6847 188.122 50.6516 187.162 50.6228 186.344C50.6071 185.89 50.5919 185.47 50.5919 185.255V179.423L48.4133 176.201L49.1182 175.509C49.226 175.403 49.3353 175.295 49.4588 175.157C49.5498 175.062 49.6439 174.945 49.7495 174.788L50.5919 173.54V172.295L50.6569 172.103C50.7961 171.692 50.9028 171.138 51.021 170.52C51.0929 170.143 51.1702 169.742 51.2793 169.257V169.248C53.4831 159.783 51.7074 156.708 50.3051 154.282C49.6507 153.15 49.0637 152.134 48.8482 150.788L46.7862 151.34C46.9905 151.982 47.4868 152.477 48.0606 153.049C48.5299 153.515 49.0398 154.023 49.5422 154.688C49.6292 154.79 49.7852 154.998 49.8796 155.27C50.8247 156.945 51.7496 159.351 51.8904 162.197C51.9981 164.367 51.6513 166.791 50.5137 169.337C49.733 171.159 48.8312 172.505 47.8693 173.488C46.8764 174.503 45.8181 175.14 44.7552 175.52C44.4807 175.632 44.2036 175.721 43.9197 175.798L45.7667 175.959L45.93 176.023C46.3138 176.174 46.755 176.375 47.2141 176.629C47.6037 176.842 47.9836 177.086 48.3252 177.355L48.4458 177.45L48.5433 177.583C49.204 178.477 49.5283 179.566 49.6824 180.71C49.8266 181.781 49.8271 182.842 49.8271 183.835C49.8271 184.445 49.8395 184.848 49.8518 185.269C49.9304 187.912 50.0251 191.1 48.3108 195.722C48.2069 196.011 48.08 196.288 47.9374 196.553C46.5411 199.151 43.6101 200.433 40.7837 200.963C38.0529 201.475 35.3193 201.272 34.2748 200.89C34.149 200.845 34.0386 200.796 33.9442 200.746L33.2673 200.339C33.0046 200.176 32.8138 200.059 32.6719 199.99L32.577 199.943L32.4905 199.879L32.0438 199.669C30.5337 198.958 27.1585 197.367 25.59 194.158L25.5664 194.111C24.6858 192.084 24.4669 190.299 24.7261 188.488C24.9747 186.752 25.6684 185.034 26.6366 183.057L27.2416 181.849C28.7187 178.9 29.2653 177.808 31.2324 176.839L31.348 176.788C31.8498 176.603 32.3531 176.416 32.953 176.226C33.3751 176.092 33.788 175.977 34.1825 175.896C31.2137 175.017 30.1328 173.421 30.1284 173.415L30.0678 173.317C29.7564 172.754 29.2732 172.038 28.7423 171.25C26.7624 168.313 24.1292 164.406 24.6931 159.953V159.94C24.821 159.033 24.9776 158.184 25.1532 157.394L25.2156 157.12L24.4726 157.319L24.3043 158.162C24.2068 158.693 24.1153 159.264 24.0322 159.871V159.886C23.6769 162.277 24.2191 164.516 25.0885 166.497C25.9864 168.542 27.2592 170.36 28.2767 171.802L28.3323 171.89C28.5187 172.212 28.7258 172.519 28.9143 172.8C29.2902 173.36 29.6164 173.846 29.7537 174.338C29.8413 174.564 30.046 174.866 30.2498 175.168C30.3801 175.298 30.7953 175.984 30.9311 176.187L29.9013 176.84C29.1397 177.322 28.5897 177.893 28.1055 178.602C27.5864 179.363 27.1263 180.293 26.5812 181.428C26.507 181.638 26.4253 181.808 26.3411 181.986C26.2501 182.174 26.1531 182.378 26.102 182.579L26.0716 182.696L26.0092 182.82C25.1364 184.541 24.3266 186.345 24.0264 188.256C23.7336 190.121 23.9124 192.152 24.9749 194.423C25.7942 196.15 27.0655 197.429 28.3231 198.362C29.6132 199.32 30.9146 199.93 31.72 200.296L31.7672 200.317H31.866L32.1764 200.536C32.6777 200.888 33.9605 201.627 35.3232 202.255C36.2379 202.677 37.1707 203.041 37.8733 203.179L38.0125 203.216C38.6895 203.438 40.377 204.254 42.1252 205.187C43.6588 206.004 45.2662 206.927 46.2921 207.622L46.3015 207.626C46.8953 208.036 47.746 208.467 48.6534 208.888L46.9535 207.188L46.6814 207.009C46.1004 206.627 45.1975 206.084 44.1446 205.49C43.2333 204.977 42.246 204.449 41.3101 203.987L38.1667 202.438L41.6069 201.76C42.2185 201.64 42.8674 201.454 43.5005 201.204C44.0786 200.978 44.6286 200.705 45.1099 200.388L46.5511 199.44L46.9192 201.126C47.1011 201.961 47.3428 202.736 47.6443 203.479C47.949 204.229 48.316 204.952 48.7439 205.675L51.3702 210.111L51.3876 210.118C51.6138 210.229 51.8613 210.339 52.0936 210.434C52.35 210.539 52.6053 210.634 52.8006 210.698L53.2175 210.834L53.4453 211.208C53.8566 211.882 54.6379 213.423 55.043 214.221L55.5104 215.072C55.9723 215.92 56.2607 216.446 56.5166 216.782L56.5588 216.838C56.826 217.232 57.2357 217.907 57.6486 218.618C58.05 219.312 58.4551 220.043 58.7262 220.579L58.7833 220.692C58.799 220.756 58.8793 221.115 58.8916 221.127C58.9875 221.539 59.1105 222.062 59.3344 222.43L59.3758 222.498L59.4088 222.574C59.6057 223.028 60.2064 224.04 61.309 225.632C62.1862 226.899 63.3647 228.505 64.8829 230.444L65.4279 231.24L65.7019 231.563C66.2913 232.256 66.9595 233.043 67.6409 233.937L70.7814 238.064C72.4336 240.215 74.2423 242.483 76.0041 244.621C77.7157 246.697 79.4201 248.692 80.9291 250.373C82.935 252.605 84.6252 254.211 86.0154 255.394C87.3882 256.562 88.5144 257.355 89.3542 257.927L89.4388 257.985L89.5162 258.061C89.6525 258.196 89.7878 258.309 89.9113 258.401C90.0539 258.506 90.17 258.577 90.2513 258.617L90.4028 258.691L90.5297 258.808C91.6382 259.823 94.2208 262.289 96.2793 264.348C97.7401 265.81 98.9786 267.112 99.349 267.659L99.4282 267.789C99.6733 268.273 99.812 268.717 99.9305 269.095L100.015 269.36C100.132 269.706 100.25 270.052 100.418 270.398C100.576 270.722 100.786 271.059 101.097 271.417L101.143 271.473C101.364 271.763 102.197 273.008 103.279 274.655C104.434 276.421 105.759 278.456 106.876 280.195H107.706C107.659 280.077 107.613 279.982 107.57 279.913C106.417 278.064 104.974 275.81 103.815 274.046C102.783 272.476 101.935 271.226 101.653 270.893C101.195 270.352 101.028 269.826 100.823 269.179C100.653 268.659 100.452 268.028 99.9798 267.271C99.6319 266.713 98.4556 265.451 97.0627 264.039C94.7197 261.663 91.8366 258.948 91.042 258.244C90.7754 258.007 90.3512 257.708 89.8174 257.332C88.1348 256.146 85.4198 254.231 81.5216 249.895L81.5127 249.881C80.1972 248.38 78.7448 246.683 77.2682 244.919C75.8415 243.215 74.3359 241.383 72.842 239.525L69.6829 235.374C69.032 234.514 68.2782 233.552 67.5817 232.663C66.7708 231.627 66.0309 230.683 65.4812 229.938C64.1999 228.286 63.1662 226.891 62.3548 225.76C61.0416 223.936 60.317 222.795 60.0601 222.374L60.0045 222.283L59.972 222.202C59.6915 221.509 59.5719 220.762 59.5315 220.455C59.1404 219.75 57.8301 217.403 57.2245 216.504C56.8849 216.049 56.5313 215.405 56.1134 214.641L54.2024 211.235L56.9287 211.968C57.6416 212.159 58.3822 212.318 59.1281 212.422C59.7997 212.517 60.4958 212.571 61.2018 212.571H136.191C140.188 212.571 143.821 210.961 146.452 208.367C149.078 205.78 150.708 202.209 150.708 198.28L150.709 198.281ZM44.8947 203.192L45.0462 203.276L45.0035 203.142L44.8947 203.192ZM34.5005 198.316L35.0915 198.668C35.8507 198.95 38.0267 199.069 40.3477 198.634C42.5819 198.215 44.8625 197.268 45.8503 195.43C45.9379 195.267 46.0181 195.091 46.0865 194.906L46.091 194.901C47.6462 190.712 47.5586 187.771 47.4862 185.334C47.4689 184.741 47.4514 184.17 47.4514 183.835C47.4514 182.893 47.4508 181.888 47.3347 181.025C47.2364 180.299 47.0586 179.631 46.7296 179.122C46.5152 178.963 46.2907 178.822 46.0679 178.699C45.7968 178.546 45.5056 178.411 45.225 178.295L41.0041 177.928H37.5152C37.0153 177.928 36.5672 177.957 36.1637 177.999C35.7327 178.045 35.3287 178.107 34.9572 178.167L34.9342 178.172C34.5367 178.228 34.1086 178.34 33.6687 178.48C33.2691 178.607 32.7451 178.801 32.2186 178.995C31.0082 179.614 30.5531 180.524 29.3581 182.912L28.7578 184.11C27.8963 185.866 27.2828 187.371 27.0752 188.822C26.877 190.203 27.051 191.58 27.739 193.165C28.9523 195.591 31.7847 196.926 33.0557 197.524C33.3688 197.672 33.6097 197.784 33.7943 197.902C33.9715 197.995 34.1977 198.134 34.5003 198.315L34.5005 198.316ZM167.263 98.7072L165.632 89.6847L165.573 89.8205C165.48 90.1236 165.391 90.3844 165.287 90.6893C164.732 92.3263 163.753 95.2094 163.937 96.7564C164.064 97.5815 164.658 99.0478 165.458 100.554C166.192 101.936 167.083 103.307 167.928 104.198L167.966 104.234C168.061 104.111 168.142 103.976 168.202 103.856L167.262 98.7072H167.263ZM168.124 104.361C168.129 104.364 168.135 104.368 168.124 104.361V104.361Z"
      fill="#D8A04D"
    />
    <line
      x1="37.1816"
      y1="136.708"
      x2="81.5536"
      y2="124.818"
      stroke="url(#paint0_linear_681_124)"
      stroke-width="4"
      stroke-linejoin="round"
    />
    <path
      d="M61.8732 68.2978V71.5738L65.5244 70.5955V91.2595L61.595 92.3123V95.3363L72.6182 92.3827V89.3587L68.6888 90.4116V66.4716L61.8732 68.2978ZM88.7685 83.8432V65.0872L84.8043 62.0094C83.1004 62.466 81.4313 62.9132 79.7622 63.3605L75.7633 68.572V87.328L79.7274 90.6218L84.8391 89.2521L88.7685 83.8432ZM85.6389 71.1458V83.3858L83.4482 86.3848L81.0836 87.0184L79.5883 85.763L85.6389 71.1458ZM78.9276 81.3681V69.0561L81.0836 66.2824L83.4829 65.6395L84.9782 66.7508L78.9276 81.3681ZM106.631 79.0571V60.3011L102.666 57.2233C100.963 57.6798 99.2934 58.1271 97.6243 58.5743L93.6253 63.7858V82.5418L97.5895 85.8356L102.701 84.466L106.631 79.0571ZM103.501 66.3597V78.5997L101.31 81.5987L98.9457 82.2323L97.4504 80.9769L103.501 66.3597ZM96.7897 76.5819V64.2699L98.9457 61.4963L101.345 60.8534L102.84 61.9647L96.7897 76.5819ZM125.501 50.9608L114.86 81.0639L117.573 80.3371L128.283 50.2154L125.501 50.9608ZM115.973 65.1418L114.408 65.561L113.052 64.1604V58.3284L114.478 56.3264L115.869 55.9537L117.399 57.1637V62.9957L115.973 65.1418ZM128.735 74.9342L127.135 75.3628L125.779 73.9262V68.0942L127.205 66.0922L128.631 65.7102L130.091 66.9389V72.7709L128.735 74.9342ZM132.421 65.4146L129.639 63.064L126.197 63.9864L123.484 67.8092V75.3332L126.057 77.9557C127.275 77.6296 128.526 77.2941 129.778 76.9587L132.421 72.9746V65.4146ZM119.694 55.6488L116.912 53.2622L113.47 54.1846L110.722 58.0527V65.5767L113.33 68.2259L117.051 67.2289L119.694 63.2088V55.6488ZM44.9457 107.158V107.228L44.5883 107.543V113.893L45.4673 113.658V107.048L47.0997 106.61V113.22L47.9787 112.985V105.505L44.0764 106.55V107.39L44.9457 107.158ZM52.895 105.207L51.8036 104.37L50.4223 104.74L49.3308 106.163V111.453L50.4126 112.363L51.8036 111.99L52.895 110.497V105.207ZM51.4268 111.191L50.7893 111.362L50.2001 110.87V106.3L50.7797 105.544L51.4365 105.368L52.0161 105.813V110.383L51.4268 111.191ZM57.0465 109.755L55.3754 110.203L56.1772 104.188L57.0465 103.955V109.755ZM54.6413 111.95V111.2L57.6937 110.382V111.132L58.5437 110.904V109.354L57.9255 109.52V102.83L54.8538 103.653V104.543L55.6073 104.341V104.411L55.2402 104.749L54.4868 110.441L53.7913 110.627V112.177L54.6413 111.95ZM62.2629 108.357L60.5918 108.805L61.3935 102.79L62.2629 102.557V108.357ZM59.8577 110.552V109.802L62.91 108.984V109.734L63.7601 109.506V107.956L63.1419 108.122V101.432L60.0702 102.255V103.145L60.8236 102.943V103.013L60.4566 103.351L59.7032 109.043L59.0077 109.23V110.78L59.8577 110.552ZM65.644 104.091V101.671L66.8514 101.348V102.208L67.7304 101.972V100.202L64.2531 101.134V102.044L65.132 101.809V101.879L64.765 102.207V108.487L67.8173 107.669V105.989L66.9383 106.225V106.995L65.644 107.341V105.001L67.2764 104.564V103.654L65.644 104.091ZM70.0491 103.701V100.491L71.0827 100.214L71.6719 100.666V102.606L71.073 103.427L70.0491 103.701ZM71.4401 99.2084L68.6485 99.9564V100.836L69.5372 100.598V100.668L69.1701 100.997V107.307L70.0491 107.071V104.611L71.4497 104.236L72.5605 102.728V100.048L71.4401 99.2084ZM76.9964 100.8V97.7095L76.1174 97.9451V101.035L75.8276 101.113L74.5236 98.3721L73.5577 98.6309L75.0646 101.727L73.3066 106.198L74.2725 105.939L75.8276 101.923L76.1174 101.845V105.445L76.9964 105.21V101.61L77.2862 101.532L78.8413 104.715L79.8073 104.456L78.0493 100.927L79.5561 97.0237L78.5902 97.2825L77.2862 100.722L76.9964 100.8ZM81.6421 96.4947L80.2415 96.87V97.78L81.1302 97.5419V97.6119L80.7631 97.9403V104.2L81.6421 103.965V100.415L82.1058 100.29L83.7092 103.411L84.6751 103.152L82.8689 99.636L84.453 95.7416L83.4871 96.0004L82.1058 99.3805L81.6421 99.5047V96.4947ZM87.5943 99.5099L86.3386 99.8463L86.8698 95.984L87.0534 95.9348L87.5943 99.5099ZM85.5465 96.3386L86.2999 96.1367V96.2067L85.9329 96.535L85.0442 103.053L85.9329 102.815L86.213 100.79L87.7198 100.386L88 102.261L88.8886 102.023L87.8164 94.8203L85.5465 95.4286V96.3386ZM94.4485 100.533V99.8733L95.3178 99.6403L96.4093 98.1479V94.3579L95.3178 93.5203L94.4485 93.7533V93.0333L93.5695 93.2688V93.9888L92.6905 94.2243L91.599 95.6468V99.4368L92.6905 100.344L93.5695 100.109V100.769L94.4485 100.533ZM94.4485 99.0333V94.6233L94.9508 94.4887L95.5303 94.9334V98.0734L94.9411 98.9013L94.4485 99.0333ZM93.0576 94.996L93.5695 94.8588V99.2688L93.0672 99.4034L92.478 98.8913V95.7513L93.0576 94.996ZM98.7251 96.0174V92.8074L99.7586 92.5304L100.348 92.9826V94.9226L99.7489 95.743L98.7251 96.0174ZM100.116 91.5247L97.3245 92.2727V93.1527L98.2131 92.9145V92.9845L97.8461 93.3129V99.6229L98.7251 99.3874V96.9274L100.126 96.5521L101.236 95.0444V92.3644L100.116 91.5247ZM104.668 94.935L103.412 95.2715L103.943 91.4091L104.127 91.36L104.668 94.935ZM102.62 91.7637L103.373 91.5618V91.6318L103.006 91.9602L102.118 98.4783L103.006 98.2402L103.286 96.2151L104.793 95.8114L105.073 97.6863L105.962 97.4482L104.89 90.2455L102.62 90.8537V91.7637ZM106.522 90.7382L107.391 90.5053V90.5753L107.034 90.891V97.161L107.913 96.9255V93.6255L109.545 93.1881V96.4881L110.424 96.2526V88.7826L109.545 89.0181V92.3181L107.913 92.7555V89.4555L106.522 89.8282V90.7382ZM112.211 89.2138V89.2838L111.854 89.5996V92.1996L112.955 93.1145L114.239 92.7703V95.2303L115.118 94.9948V87.5048L114.239 87.7403V91.8603L113.332 92.1036L112.733 91.6041V88.1641L111.342 88.5368V89.4468L112.211 89.2138ZM118.647 91.1892L117.392 91.5257L117.923 87.6633L118.106 87.6142L118.647 91.1892ZM116.6 88.0179L117.353 87.816V87.886L116.986 88.2144L116.097 94.7325L116.986 94.4944L117.266 92.4693L118.773 92.0656L119.053 93.9405L119.942 93.7024L118.869 86.4997L116.6 87.1079V88.0179ZM122.163 85.0672L123.361 84.7463L123.902 83.9814L123.438 83.5556L123.052 83.9791L122.462 84.137L122.095 83.9153L121.612 84.5948L122.163 85.0672ZM121.371 86.7595V86.8295L121.013 87.1452V93.4152L121.95 93.1642L123.08 89.1814L123.766 86.4776L123.795 86.4698L123.631 89.1138V92.7138L124.51 92.4783V85.0083L123.322 85.3266L122.501 88.2266L121.786 91.3782L121.757 91.3859L121.892 88.3397V85.7097L120.501 86.0824V86.9924L121.371 86.7595ZM126.787 88.2982L127.608 88.0782L128.226 88.5626V89.9926L127.676 90.7601L127.067 90.9232L126.526 90.4481V89.4581L125.647 89.6936V91.0436L126.69 91.9141L128.062 91.5466L129.115 90.1145V87.9045L128.39 87.3586L128.922 86.5562V84.9062L127.917 84.0454L126.69 84.3741L125.705 85.7681V86.5881L126.594 86.35V85.91L127.057 85.2057L127.55 85.0737L128.033 85.5243V86.4343L127.521 87.2215L126.787 87.4182V88.2982ZM130.879 84.2117V84.2817L130.522 84.5975V90.8675L131.459 90.6164L132.589 86.6336L133.275 83.9298L133.304 83.9221L133.139 86.5661V90.1661L134.018 89.9306V82.4605L132.83 82.7789L132.009 85.6789L131.294 88.8304L131.266 88.8382L131.401 85.7919V83.1619L130.01 83.5346V84.4446L130.879 84.2117Z"
      fill="black"
    />
    <path
      fill-rule="evenodd"
      clip-rule="evenodd"
      d="M109.717 176.146C110.394 177.43 114.55 177.276 115.456 177.276L116.436 178.485L115.68 179.769C112.813 179.769 111.076 178.709 108.508 178.336C106.921 178.032 95.2948 185.506 93.1798 186.715C89.2532 188.825 75.363 196.378 70.6054 196.299C70.2274 196.299 70.0031 196.224 69.6997 196.075C67.3605 195.015 67.7341 192.452 68.9434 191.243C69.2467 190.865 69.471 190.79 69.924 190.641L86.2326 184.675C88.6512 183.695 100.431 179.012 102.243 176.599L93.3294 175.614L93.2548 179.465L66.3008 175.843L66.5295 169.125L107.827 175.39L106.622 175.693C107.981 178.56 106.319 175.241 109.718 176.146H109.718L109.717 176.146ZM66.6039 166.707V166.632V166.03C66.7532 163.99 67.3602 162.254 68.4901 160.821C69.7741 159.234 71.5111 158.402 73.626 158.482C75.9653 158.482 77.7769 159.233 79.0608 160.671C80.2701 162.179 80.8725 164.219 80.8725 166.861C80.8725 168.065 80.7978 169.125 80.4944 170.105L77.5529 169.652C77.7769 168.822 77.8518 167.916 77.8518 166.861C77.8518 163.01 76.4932 161.045 73.6263 161.045C72.3423 161.045 71.3617 161.497 70.6801 162.557C70.0777 163.462 69.6997 164.592 69.6248 165.955C69.6248 166.632 69.4708 167.841 69.5454 168.443L66.5292 167.916L66.6039 166.781V166.707V166.707ZM120.288 163.01C119.835 162.86 119.303 162.86 118.775 162.86C118.248 162.86 117.795 162.86 117.342 163.01C116.287 163.234 115.302 163.766 114.625 164.592C113.565 165.727 113.037 167.235 113.037 169.051C113.037 170.936 113.49 172.444 114.55 173.579C115.531 174.708 116.964 175.315 118.775 175.315C120.512 175.315 121.946 174.708 123.006 173.579C123.986 172.444 124.514 170.936 124.514 169.051C124.514 167.085 123.986 165.577 123.006 164.518C122.324 163.687 121.418 163.234 120.288 163.01L120.288 163.01ZM113.037 160.592C113.266 160.442 113.34 160.218 113.34 159.989C113.34 159.462 112.962 159.084 112.435 159.084H111.151V160.442C111.225 160.517 111.225 160.671 111.3 160.746C111.454 161.124 111.604 161.651 111.678 162.104H112.435C113.037 162.104 113.415 161.801 113.415 161.273C113.415 160.97 113.266 160.746 113.037 160.592V160.592ZM111.907 160.293V159.765H112.36C112.509 159.765 112.584 159.84 112.584 159.989C112.584 160.138 112.509 160.292 112.36 160.292H111.907V160.293ZM111.907 161.497V160.895H112.36C112.584 160.895 112.659 161.044 112.659 161.198C112.659 161.348 112.584 161.497 112.36 161.497H111.907ZM116.361 162.104L115.301 159.084H114.699L113.564 162.104H114.395L114.549 161.651H115.455L115.605 162.104H116.361H116.361ZM115.227 161.044H114.699L115.003 160.218L115.227 161.044ZM119.079 162.104L118.397 160.895C118.551 160.82 118.626 160.746 118.7 160.671C118.775 160.517 118.85 160.293 118.85 160.064C118.85 159.537 118.472 159.084 117.869 159.084H116.66V162.104H117.416V160.97H117.645L118.173 162.104H119.078L119.079 162.104ZM117.416 160.367V159.765H117.794C118.018 159.765 118.172 159.914 118.172 160.064C118.172 160.218 118.018 160.367 117.794 160.367H117.416ZM121.268 160.591C121.492 160.442 121.646 160.218 121.646 159.989C121.646 159.462 121.268 159.084 120.661 159.084H119.382V162.104H120.741C121.268 162.104 121.646 161.801 121.646 161.273C121.646 160.97 121.572 160.746 121.268 160.592V160.591ZM120.134 160.292V159.765H120.587C120.815 159.765 120.89 159.84 120.89 159.989C120.89 160.138 120.815 160.292 120.587 160.292H120.134V160.292ZM120.134 161.497V160.895H120.661C120.815 160.895 120.89 161.044 120.89 161.198C120.89 161.347 120.815 161.497 120.661 161.497H120.134ZM124.209 162.104V161.497H122.93V160.969H124.06V160.292H122.93V159.76H124.209V159.083H122.174V162.104H124.209ZM127.081 162.104L126.478 160.895C126.628 160.82 126.628 160.745 126.702 160.671C126.852 160.517 126.931 160.292 126.931 160.064C126.931 159.536 126.553 159.084 125.946 159.084H124.741V162.104H125.493V160.97H125.722L126.249 162.104H127.08L127.081 162.104ZM125.493 160.367V159.765H125.871C126.1 159.765 126.175 159.914 126.175 160.064C126.175 160.218 126.1 160.367 125.871 160.367H125.493ZM128.967 159.914L129.42 159.461C129.271 159.307 129.196 159.233 129.042 159.158C128.892 159.083 128.668 159.083 128.439 159.083C127.762 159.083 127.309 159.461 127.309 160.064C127.309 160.516 127.608 160.82 128.136 160.894L128.514 160.969C128.668 160.969 128.742 161.044 128.742 161.198C128.742 161.422 128.588 161.497 128.364 161.497C128.135 161.497 127.986 161.497 127.837 161.422C127.762 161.347 127.762 161.347 127.682 161.273L127.155 161.726C127.384 161.949 127.458 161.949 127.608 162.029C127.762 162.104 127.986 162.178 128.289 162.178C129.041 162.178 129.494 161.8 129.494 161.198C129.494 160.671 129.27 160.367 128.668 160.293L128.289 160.218C128.135 160.218 128.061 160.139 128.061 159.989C128.061 159.84 128.215 159.761 128.439 159.761C128.588 159.761 128.742 159.761 128.817 159.761C128.892 159.84 128.892 159.84 128.966 159.915L128.967 159.914ZM132.217 162.104V159.083H131.535V160.292H130.704V159.083H129.952V162.104H130.704V160.895H131.535V162.104H132.217ZM135.009 160.591V160.367C135.009 159.914 134.934 159.611 134.705 159.387C134.481 159.159 134.252 159.084 133.874 159.084C133.575 159.084 133.272 159.159 133.048 159.387C132.819 159.686 132.745 159.915 132.745 160.517V160.671C132.745 161.045 132.745 161.497 133.048 161.801C133.272 162.029 133.576 162.179 133.874 162.179C134.252 162.179 134.556 162.029 134.705 161.801C135.083 161.497 135.009 161.045 135.009 160.592V160.591ZM133.575 159.84C133.65 159.765 133.799 159.765 133.874 159.765C134.028 159.765 134.103 159.765 134.178 159.84C134.252 159.989 134.327 160.218 134.327 160.517V160.671C134.327 161.124 134.252 161.273 134.178 161.348C134.103 161.422 134.028 161.497 133.874 161.497C133.8 161.497 133.65 161.422 133.575 161.348C133.501 161.273 133.501 161.124 133.501 160.671V160.517C133.501 160.218 133.501 159.989 133.575 159.84ZM135.536 159.084V162.104H136.293V161.044H136.745C137.348 161.044 137.801 160.671 137.801 160.064C137.801 159.537 137.348 159.084 136.745 159.084H135.536V159.084ZM136.293 160.367V159.765H136.671C136.895 159.765 137.049 159.914 137.049 160.064C137.049 160.218 136.895 160.367 136.671 160.367H136.293ZM82.9866 158.631L85.7785 157.949V170.861H85.7039L82.9866 170.483V158.631ZM88.0431 171.011C87.9684 170.483 87.8938 169.876 87.8938 169.274C87.8938 167.388 88.4961 165.801 89.5561 164.592C90.686 163.462 92.0493 162.86 93.7069 162.86C94.6126 162.86 95.4439 163.01 96.2002 163.388V158.631L98.9921 157.949V172.897L96.2002 172.444V165.955C95.5979 165.423 94.9909 165.199 94.3139 165.199C93.1793 165.199 92.3483 165.577 91.746 166.254C91.139 166.936 90.8403 167.916 90.8403 169.2C90.8403 170.031 90.9896 170.787 91.2933 171.314C91.3679 171.464 91.4426 171.613 91.5922 171.767H91.5175L88.1233 171.24L88.0439 171.011L88.0431 171.011ZM100.883 173.125L101.107 158.631C103.296 158.556 104.884 158.481 105.79 158.481C107.447 158.481 108.811 158.855 109.791 159.611C110.697 160.367 111.224 161.348 111.224 162.706C111.224 163.99 110.543 165.045 109.109 165.801C111.15 166.483 112.205 167.99 112.205 170.18C112.205 171.692 111.603 172.897 110.468 173.728C110.244 173.882 109.866 174.255 109.562 174.484L108.81 174.335L102.54 173.425L100.882 173.126L100.883 173.125ZM104.053 160.97V164.895C104.506 164.97 104.959 164.97 105.412 164.97C107.373 164.97 108.279 164.293 108.279 162.86C108.279 161.576 107.448 160.97 105.715 160.97C105.258 160.97 104.655 160.97 104.053 160.97ZM104.053 167.234V172.598C104.581 172.673 105.108 172.673 105.486 172.673C106.77 172.673 107.676 172.444 108.278 171.991C108.885 171.613 109.184 170.861 109.184 169.876C109.184 168.896 108.885 168.219 108.358 167.841C107.825 167.388 106.845 167.16 105.486 167.16C105.183 167.16 104.73 167.16 104.053 167.234H104.053ZM115.908 169.05C115.908 171.692 116.888 172.971 118.775 172.971C119.606 172.971 120.287 172.673 120.815 171.991C121.343 171.24 121.571 170.329 121.571 169.05C121.571 166.408 120.661 165.124 118.775 165.124C117.869 165.124 117.192 165.502 116.66 166.179C116.207 166.861 115.908 167.766 115.908 169.05H115.908ZM125.871 179.768L124.816 178.485L125.871 177.276C126.1 177.276 126.324 177.276 126.628 177.276C127.006 177.201 127.309 177.201 127.608 177.126C128.136 176.977 128.439 176.673 128.668 176.524C128.818 176.295 128.892 176.146 128.967 175.917C129.042 175.768 129.121 175.693 129.042 175.464C129.042 174.708 128.743 173.728 128.215 172.369L124.438 163.084H127.31L130.629 171.314L133.576 163.084H136.517L131.157 177.275L131.083 177.35C131.083 177.35 129.873 179.917 125.872 179.768L125.871 179.768ZM104.431 176.673C104.959 176.673 105.412 177.126 105.412 177.654C105.412 178.256 104.959 178.713 104.431 178.634C103.899 178.634 103.446 178.181 103.446 177.654C103.446 177.126 103.899 176.673 104.431 176.673ZM71.5849 192.298C72.1125 192.298 72.5655 192.751 72.5655 193.283C72.5655 193.81 72.1125 194.263 71.5849 194.263C70.9826 194.263 70.6046 193.81 70.6046 193.203C70.6046 192.675 70.9826 192.223 71.5849 192.298V192.298Z"
      fill="white"
    />
    <path
      d="M36.072 122.647L36.893 122.427L37.5112 122.911V124.341L36.9606 125.108L36.3521 125.271L35.8112 124.796V123.806L34.9322 124.042V125.392L35.9754 126.262L37.347 125.895L38.3999 124.463V122.253L37.6754 121.707L38.2067 120.905V119.255L37.2021 118.394L35.9754 118.722L34.9902 120.116V120.936L35.8788 120.698V120.258L36.3425 119.554L36.8351 119.422L37.318 119.873V120.783L36.8061 121.57L36.072 121.767V122.647ZM41.8835 121.799L40.6278 122.136L41.1591 118.273L41.3426 118.224L41.8835 121.799ZM39.8358 118.628L40.5892 118.426V118.496L40.2222 118.824L39.3335 125.343L40.2222 125.104L40.5023 123.079L42.0091 122.676L42.2892 124.551L43.1779 124.313L42.1057 117.11L39.8358 117.718V118.628ZM45.119 116.322L43.7184 116.698V117.608L44.6071 117.37V117.44L44.24 117.768V124.028L45.119 123.792V120.242L45.5827 120.118L47.1861 123.239L48.152 122.98L46.3457 119.464L47.9299 115.569L46.9639 115.828L45.5827 119.208L45.119 119.332V116.322ZM49.8638 119.151V115.941L50.8973 115.664L51.4865 116.116V118.056L50.8876 118.877L49.8638 119.151ZM51.2547 114.658L48.4632 115.406V116.286L49.3518 116.048V116.118L48.9848 116.447V122.757L49.8638 122.521V120.061L51.2643 119.686L52.3752 118.178V115.498L51.2547 114.658ZM57.0235 119.463V116.783L55.9127 115.87L54.5121 116.246V113.786L53.6331 114.021V121.511L55.9031 120.903L57.0235 119.463ZM55.536 116.881L56.1349 117.381V119.321L55.5457 120.089L54.5121 120.366V117.156L55.536 116.881ZM58.8974 120.1V112.6C58.144 112.802 58.7719 112.634 58.0184 112.836V120.336L58.8974 120.1ZM61.2308 115.225V112.925L62.1001 112.692L62.6604 113.122V114.212L62.1484 114.979L61.2308 115.225ZM61.2308 116.145L62.2354 115.876L62.8536 116.34V117.54L62.2933 118.271L61.2308 118.555V116.145ZM59.8302 113.301L60.7092 113.065V113.135L60.3422 113.463V119.713L62.6604 119.092L63.7422 117.682V115.682L63.0178 115.136L63.549 114.334V112.504L62.4672 111.664L59.8302 112.371V113.301ZM67.2391 115.005L65.9834 115.342L66.5147 111.479L66.6982 111.43L67.2391 115.005ZM65.1913 111.834L65.9448 111.632V111.702L65.5777 112.03L64.6891 118.549L65.5777 118.31L65.8578 116.285L67.3647 115.882L67.6448 117.757L68.5334 117.519L67.4613 110.316L65.1913 110.924V111.834ZM70.4746 112.838V110.418L71.682 110.095V110.955L72.561 110.719V108.949L69.0836 109.881V110.791L69.9626 110.556V110.626L69.5956 110.954V117.234L72.6479 116.416V114.736L71.7689 114.972V115.742L70.4746 116.088V113.748L72.107 113.311V112.401L70.4746 112.838ZM77.99 114.975L78.8497 114.744V107.264L77.1014 107.733L76.686 110.814L76.4445 113.489L76.4155 113.497L76.1644 110.914L75.7491 108.095L73.4791 108.703V109.593L74.3485 109.36V109.43L74.0007 109.744V116.044L74.8604 115.813V109.223L74.986 109.19L75.8843 114.859L76.9951 114.561L77.8644 108.418L77.99 108.385V114.975ZM82.9358 109.409V107.109L83.8052 106.876L84.3654 107.306V108.396L83.8535 109.164L82.9358 109.409ZM82.9358 110.329L83.9404 110.06L84.5586 110.525V111.725L83.9984 112.455L82.9358 112.739V110.329ZM81.5353 107.485L82.4142 107.249V107.319L82.0472 107.648V113.898L84.3654 113.276L85.4473 111.866V109.866L84.7228 109.321L85.2541 108.518V106.688L84.1722 105.848L81.5353 106.555V107.485ZM89.3691 106.646L90.2481 106.41V105.28L89.1953 104.422L87.8237 104.79L86.7708 106.212V111.472L87.814 112.402L89.1953 112.032L90.2481 110.54V109.36L89.3691 109.606V110.436L88.8089 111.226L88.2004 111.389L87.6498 110.896V106.336L88.1907 105.601L88.8186 105.433L89.3691 105.876V106.646ZM92.4909 106.939V104.519L93.6983 104.196V105.056L94.5773 104.82V103.05L91.1 103.982V104.892L91.979 104.656V104.726L91.6119 105.055V111.335L94.6642 110.517V108.837L93.7852 109.072V109.842L92.4909 110.189V107.849L94.1233 107.412V106.502L92.4909 106.939ZM98.6699 105.193V102.893L99.5392 102.661L100.099 103.09V104.18L99.5875 104.948L98.6699 105.193ZM98.6699 106.113L99.6744 105.844L100.293 106.309V107.509L99.7324 108.239L98.6699 108.523V106.113ZM97.2693 103.269L98.1483 103.033V103.103L97.7812 103.432V109.682L100.099 109.06L101.181 107.651V105.651L100.457 105.105L100.988 104.302V102.472L99.9063 101.632L97.2693 102.339V103.269ZM106.069 101.001L104.978 100.163L103.596 100.533L102.505 101.956V107.246L103.587 108.156L104.978 107.783L106.069 106.291V101.001ZM104.601 106.984L103.963 107.155L103.374 106.663V102.093L103.954 101.338L104.611 101.162L105.19 101.606V106.176L104.601 106.984ZM107.873 100.337V100.407L107.516 100.723V107.073L108.395 106.838V100.228L110.027 99.7902V106.4L110.906 106.165V98.6847L107.004 99.7304V100.57L107.873 100.337ZM113.224 102.174V98.9636L114.258 98.6867L114.847 99.1388V101.079L114.248 101.899L113.224 102.174ZM114.615 97.6809L111.824 98.4289V99.3089L112.712 99.0708V99.1408L112.345 99.4691V105.779L113.224 105.544V103.084L114.625 102.708L115.736 101.201V98.5207L114.615 97.6809ZM120.558 97.1186L119.466 96.281L118.085 96.6512L116.994 98.0736V103.364L118.076 104.274L119.466 103.901L120.558 102.409V97.1186ZM119.09 103.102L118.452 103.273L117.863 102.781V98.2107L118.443 97.4554L119.099 97.2794L119.679 97.7241V102.294L119.09 103.102ZM124.507 97.2306L125.386 96.995V95.865L124.333 95.0071L122.961 95.3747L121.908 96.7968V102.057L122.951 102.987L124.333 102.617L125.386 101.125V99.945L124.507 100.191V101.021L123.946 101.811L123.338 101.974L122.787 101.481V96.9213L123.328 96.1863L123.956 96.0181L124.507 96.4606V97.2306ZM130.053 99.8944V97.2144L128.942 96.3021L127.541 96.6774V94.2174L126.662 94.4529V101.943L128.932 101.335L130.053 99.8944ZM128.565 97.313L129.164 97.8126V99.7526L128.575 100.52L127.541 100.797V97.5874L128.565 97.313ZM131.927 100.532V93.0323C131.173 93.2342 131.801 93.066 131.048 93.2679V100.768L131.927 100.532ZM90.9536 115.971L91.0212 118.133L91.7263 117.944L91.7649 115.754L90.9536 115.971ZM92.2382 115.627L92.3059 117.789L93.0013 117.602L93.0786 115.402L92.2382 115.627ZM94.6862 115.871V115.941L94.3288 116.257V122.607L95.2078 122.371V115.761L96.8402 115.324V121.934L97.7192 121.698V114.218L93.8169 115.264V116.104L94.6862 115.871ZM102.636 113.921L101.544 113.083L100.163 113.453L99.0713 114.876V120.166L100.153 121.076L101.544 120.703L102.636 119.211V113.921ZM101.167 119.904L100.53 120.075L99.9406 119.583V115.013L100.52 114.258L101.177 114.082L101.757 114.526V119.096L101.167 119.904ZM106.787 118.469L105.116 118.916L105.918 112.901L106.787 112.669V118.469ZM104.382 120.663V119.913L107.434 119.095V119.845L108.284 119.617V118.067L107.666 118.233V111.543L104.594 112.366V113.256L105.348 113.054V113.124L104.981 113.462L104.227 119.154L103.532 119.341V120.891L104.382 120.663ZM111.923 110.422L110.522 110.798V111.708L111.411 111.47V111.54L111.044 111.868V118.128L111.923 117.892V114.342L112.386 114.218L113.99 117.339L114.956 117.08L113.149 113.564L114.733 109.669L113.768 109.928L112.386 113.308L111.923 113.432V110.422ZM116.88 109.964V110.034L116.484 110.38L115.73 116.032L115.17 116.182V117.022L116.513 116.662L117.421 109.819L118.29 109.586V116.186L119.169 115.951V108.461L116.097 109.284V110.174L116.88 109.964ZM124.463 113.662L123.903 113.812L123.313 113.32V108.75L123.893 107.995L124.472 107.84L125.052 108.284V112.854L124.463 113.662ZM125.931 107.679L124.84 106.841L123.536 107.191L122.444 108.613V110.903L121.488 111.159V107.859L120.097 108.232V109.142L120.966 108.909V108.979L120.609 109.295V115.565L121.488 115.329V112.029L122.444 111.773V113.903L123.526 114.813L124.84 114.461L125.931 112.969V107.679ZM127.72 107.1V107.17L127.362 107.485V110.085L128.463 111L129.748 110.656V113.116L130.627 112.881V105.391L129.748 105.626V109.746L128.84 109.989L128.241 109.49V106.05L126.85 106.423V107.333L127.72 107.1ZM131.751 105.039L131.818 107.201L132.523 107.012L132.562 104.822L131.751 105.039ZM133.035 104.695L133.103 106.857L133.798 106.671L133.876 104.47L133.035 104.695Z"
      fill="#D6A354"
    />
    <defs>
      <filter
        id="filter0_d_681_124"
        x="0.693359"
        y="15.3232"
        width="211.307"
        height="154.067"
        filterUnits="userSpaceOnUse"
        color-interpolation-filters="sRGB"
      >
        <feFlood flood-opacity="0" result="BackgroundImageFix" />
        <feColorMatrix
          in="SourceAlpha"
          type="matrix"
          values="0 0 0 0 0 0 0 0 0 0 0 0 0 0 0 0 0 0 127 0"
          result="hardAlpha"
        />
        <feOffset dy="4" />
        <feGaussianBlur stdDeviation="2" />
        <feColorMatrix type="matrix" values="0 0 0 0 0 0 0 0 0 0 0 0 0 0 0 0 0 0 0.25 0" />
        <feBlend mode="normal" in2="BackgroundImageFix" result="effect1_dropShadow_681_124" />
        <feBlend mode="normal" in="SourceGraphic" in2="effect1_dropShadow_681_124" result="shape" />
      </filter>
      <linearGradient
        id="paint0_linear_681_124"
        x1="82.0513"
        y1="126.722"
        x2="37.7078"
        y2="138.602"
        gradientUnits="userSpaceOnUse"
      >
        <stop stop-color="#D6A354" />
        <stop offset="1" stop-color="#D6A354" stop-opacity="0" />
      </linearGradient>
    </defs>
  </symbol>

  <symbol id="mark" viewBox="0 0 24 32">
    <path
      d="M11.8616 4.8916C8.07711 4.8916 4.99805 7.97054 4.99805 11.7551C4.99805 15.5396 8.07711 18.6185 11.8616 18.6185C15.6462 18.6185 18.7252 15.5396 18.7252 11.7551C18.7252 7.97054 15.6462 4.8916 11.8616 4.8916ZM11.8616 16.7723C9.09506 16.7723 6.84416 14.5215 6.84416 11.7549C6.84416 8.98836 9.09506 6.73771 11.8616 6.73771C14.6282 6.73771 16.8791 8.98849 16.8791 11.7551C16.8791 14.5216 14.6283 16.7723 11.8616 16.7723Z"
      fill="#D29C4E"
    />
    <path
      d="M11.8613 0.115234C5.4437 0.115234 0.222656 5.33628 0.222656 11.7538C0.222656 15.4549 3.32658 20.969 5.17675 23.9264C6.39408 25.872 7.70223 27.7238 8.86011 29.1404C10.7186 31.414 11.3839 31.6043 11.8614 31.6043C12.3461 31.6043 12.9741 31.4139 14.8269 29.139C15.9873 27.714 17.2961 25.8633 18.5122 23.9278C20.375 20.9632 23.5 15.4393 23.5 11.7537C23.5 5.33628 18.279 0.115234 11.8613 0.115234ZM17.2323 22.4904C14.8452 26.3652 12.6536 28.9835 11.8503 29.6519C11.0428 29.004 8.88682 26.448 6.46632 22.5026C3.67168 17.947 2.06889 14.0292 2.06889 11.7538C2.06877 6.35422 6.46164 1.96134 11.8613 1.96134C17.2609 1.96134 21.6538 6.35422 21.6538 11.7538C21.6539 14.0162 20.0422 17.9294 17.2323 22.4904Z"
      fill="#D29C4E"
    />
  </symbol>

  <symbol id="logo" viewBox="0 0 160 88">
    <path
      fill-rule="evenodd"
      clip-rule="evenodd"
      d="M97.1561 41.7555C98.671 44.7013 107.97 44.3479 109.997 44.3479L112.191 47.1223L110.498 50.0681C104.083 50.0681 100.196 47.6363 94.4499 46.7797C90.8979 46.0837 64.8817 63.2329 60.1489 66.0073C51.3622 70.8488 20.279 88.1806 9.63268 87.9986C8.78674 87.9986 8.28486 87.8273 7.60601 87.4846C2.37133 85.0528 3.2074 79.1721 5.91353 76.3977C6.59237 75.5298 7.09426 75.3585 8.1079 75.0158L44.6027 61.3264C50.015 59.0772 76.3752 48.3329 80.4291 42.7948L60.4837 40.5349L60.3166 49.3721L0 41.0596L0.511753 25.645L92.9252 40.0203L90.2295 40.7169C93.2698 47.2943 89.5507 39.6777 97.1567 41.7562H97.1573L97.1561 41.7555ZM0.678227 20.0961V19.9248V18.543C1.01241 13.862 2.37071 9.87707 4.89927 6.58872C7.77249 2.947 11.6593 1.03986 16.3921 1.22191C21.6268 1.22191 25.6808 2.94637 28.554 6.24547C31.2601 9.70513 32.6079 14.3867 32.6079 20.4495C32.6079 23.2132 32.4408 25.645 31.762 27.8941L25.1795 26.8549C25.6808 24.9484 25.8485 22.8699 25.8485 20.4495C25.8485 11.6123 22.8082 7.10264 16.3928 7.10264C13.5195 7.10264 11.3252 8.14187 9.79977 10.5731C8.45195 12.6509 7.60601 15.2432 7.43831 18.371C7.43831 19.9242 7.09364 22.6986 7.26073 24.0805L0.511137 22.8699L0.678227 20.2668V20.0955V20.0961ZM120.81 11.6123C119.797 11.2697 118.606 11.2697 117.425 11.2697C116.244 11.2697 115.231 11.2697 114.218 11.6123C111.856 12.1262 109.652 13.3475 108.137 15.2439C105.765 17.847 104.585 21.3067 104.585 25.4737C104.585 29.8013 105.599 33.2609 107.97 35.8641C110.164 38.4564 113.372 39.849 117.426 39.849C121.313 39.849 124.52 38.4564 126.892 35.8641C129.086 33.2609 130.267 29.8013 130.267 25.4737C130.267 20.9641 129.086 17.5038 126.892 15.0726C125.367 13.1661 123.34 12.1268 120.811 11.6129L120.81 11.6123ZM104.585 6.06342C105.096 5.7208 105.263 5.20625 105.263 4.68158C105.263 3.47104 104.417 2.60376 103.237 2.60376H100.363V5.7208C100.531 5.89211 100.531 6.24547 100.698 6.41741C101.042 7.2847 101.377 8.49523 101.544 9.53446H103.237C104.585 9.53446 105.43 8.83848 105.43 7.62795C105.43 6.93134 105.096 6.41741 104.585 6.06405V6.06342ZM102.056 5.37755V4.16702H103.07C103.404 4.16702 103.571 4.33833 103.571 4.68094C103.571 5.02356 103.404 5.37692 103.07 5.37692H102.056V5.37755ZM102.056 8.14124V6.7594H103.07C103.571 6.7594 103.739 7.10201 103.739 7.45537C103.739 7.79799 103.571 8.14124 103.07 8.14124H102.056ZM112.023 9.53383L109.651 2.60312H108.304L105.765 9.53383H107.624L107.969 8.4946H109.996L110.33 9.53383H112.023H112.023ZM109.484 7.10201H108.304L108.983 5.20625L109.484 7.10201ZM118.104 9.53383L116.579 6.7594C116.923 6.58809 117.09 6.41678 117.257 6.24547C117.425 5.89211 117.592 5.37755 117.592 4.85288C117.592 3.64235 116.746 2.60376 115.398 2.60376H112.692V9.53446H114.384V6.93134H114.896L116.077 9.53446H118.103L118.104 9.53383ZM114.384 5.54886V4.16702H115.23C115.731 4.16702 116.076 4.50963 116.076 4.85288C116.076 5.20625 115.731 5.54886 115.23 5.54886H114.384ZM123.004 6.06279C123.505 5.72017 123.85 5.20561 123.85 4.68094C123.85 3.47041 123.004 2.60312 121.646 2.60312H118.783V9.53383H121.823C123.004 9.53383 123.85 8.83785 123.85 7.62731C123.85 6.9307 123.683 6.41678 123.004 6.06342V6.06279ZM120.465 5.37692V4.16639H121.479C121.99 4.16639 122.157 4.33769 122.157 4.68031C122.157 5.02293 121.99 5.37629 121.479 5.37629H120.465V5.37692ZM120.465 8.14061V6.75876H121.646C121.99 6.75876 122.157 7.10138 122.157 7.45474C122.157 7.79736 121.99 8.14061 121.646 8.14061H120.465ZM129.586 9.53319V8.14061H126.723V6.93007H129.252V5.37692H126.723V4.15564H129.586V2.60249H125.031V9.53319H129.586V9.53319ZM136.011 9.53319L134.663 6.75876C134.997 6.58745 134.997 6.41615 135.165 6.24484C135.499 5.89148 135.676 5.37692 135.676 4.85225C135.676 3.64172 134.83 2.60312 133.472 2.60312H130.776V9.53383H132.458V6.9307H132.97L134.151 9.53383H136.01L136.011 9.53319ZM132.459 5.54823V4.16639H133.305C133.817 4.16639 133.984 4.509 133.984 4.85225C133.984 5.20561 133.817 5.54823 133.305 5.54823H132.459ZM140.232 4.509L141.246 3.46978C140.912 3.11641 140.745 2.94511 140.399 2.7738C140.065 2.60249 139.563 2.60249 139.051 2.60249C137.536 2.60249 136.523 3.46978 136.523 4.85162C136.523 5.89085 137.192 6.58682 138.372 6.75813L139.218 6.92944C139.563 6.92944 139.73 7.10075 139.73 7.45411C139.73 7.96803 139.385 8.13997 138.883 8.13997C138.371 8.13997 138.037 8.13997 137.702 7.96867C137.535 7.79736 137.535 7.79736 137.358 7.62605L136.177 8.66528C136.689 9.1792 136.856 9.1792 137.191 9.36189C137.535 9.5332 138.037 9.7045 138.716 9.7045C140.398 9.7045 141.412 8.83722 141.412 7.45537C141.412 6.24484 140.91 5.54886 139.563 5.37755L138.716 5.20625C138.371 5.20625 138.204 5.02419 138.204 4.68158C138.204 4.33896 138.549 4.1569 139.05 4.1569C139.384 4.1569 139.73 4.1569 139.897 4.1569C140.064 4.33896 140.064 4.33896 140.231 4.51027L140.232 4.509ZM147.504 9.53319V2.60249H145.979V5.37692H144.119V2.60249H142.437V9.53319H144.119V6.75876H145.979V9.53319H147.504ZM153.752 6.06279V5.54886C153.752 4.50964 153.585 3.81366 153.073 3.29973C152.572 2.77506 152.059 2.60376 151.213 2.60376C150.544 2.60376 149.865 2.77506 149.364 3.29973C148.852 3.9856 148.685 4.51027 148.685 5.89211V6.24547C148.685 7.10264 148.685 8.14124 149.364 8.83785C149.865 9.36252 150.545 9.70513 151.213 9.70513C152.059 9.70513 152.739 9.36252 153.073 8.83785C153.919 8.14187 153.752 7.10264 153.752 6.06342V6.06279ZM150.544 4.33833C150.711 4.16702 151.046 4.16702 151.213 4.16702C151.558 4.16702 151.725 4.16702 151.892 4.33833C152.059 4.68094 152.226 5.20561 152.226 5.89148V6.24484C152.226 7.28407 152.059 7.62668 151.892 7.79799C151.725 7.9693 151.558 8.14061 151.213 8.14061C151.046 8.14061 150.712 7.9693 150.544 7.79799C150.377 7.62668 150.377 7.28407 150.377 6.24484V5.89148C150.377 5.20561 150.377 4.68094 150.544 4.33833ZM154.932 2.60312V9.53383H156.625V7.10201H157.639C158.986 7.10201 160 6.24484 160 4.85288C160 3.64235 158.986 2.60376 157.639 2.60376H154.932V2.60312ZM156.625 5.54886V4.16702H157.471C157.973 4.16702 158.317 4.50963 158.317 4.85288C158.317 5.20625 157.973 5.54886 157.471 5.54886H156.625ZM37.3389 1.5639L43.5866 0V29.6287H43.4195L37.3389 28.7614V1.5639ZM48.6542 29.9719C48.4871 28.7614 48.32 27.3688 48.32 25.987C48.32 21.6594 49.6678 18.017 52.0398 15.2432C54.5683 12.6509 57.6191 11.269 61.3284 11.269C63.3551 11.269 65.2153 11.6116 66.9078 12.4796V1.5639L73.1555 0V34.2995L66.9078 33.2603V18.371C65.5599 17.1498 64.2016 16.6358 62.6867 16.6358C60.1477 16.6358 58.2881 17.5031 56.9403 19.0569C55.582 20.6208 54.9136 22.8706 54.9136 25.8163C54.9136 27.7228 55.2478 29.458 55.9272 30.6686C56.0943 31.0112 56.2614 31.3544 56.5962 31.7078H56.4291L48.8336 30.4972L48.656 29.9726L48.6542 29.9719ZM77.3864 34.8242L77.8876 1.5639C82.7875 1.39259 86.3402 1.22128 88.3669 1.22128C92.0762 1.22128 95.1269 2.07845 97.3207 3.81366C99.3474 5.54886 100.528 7.79862 100.528 10.9157C100.528 13.8614 99.0027 16.2825 95.7953 18.0177C100.361 19.5816 102.722 23.0412 102.722 28.0654C102.722 31.5358 101.375 34.2995 98.8356 36.2067C98.3343 36.56 97.4878 37.4172 96.8083 37.9419L95.1263 37.5993L81.0944 35.5107L77.3851 34.8248L77.3864 34.8242ZM84.4806 6.9307V15.9392C85.4943 16.1105 86.5073 16.1105 87.5209 16.1105C91.9091 16.1105 93.9363 14.5574 93.9363 11.269C93.9363 8.32329 92.0768 6.9307 88.2004 6.9307C87.1763 6.9307 85.8284 6.9307 84.4806 6.9307ZM84.4806 21.306V33.6137C85.6613 33.785 86.8421 33.785 87.688 33.785C90.5612 33.785 92.5885 33.2603 93.9357 32.2211C95.294 31.3538 95.9624 29.6287 95.9624 27.3688C95.9624 25.1197 95.2934 23.5659 94.1133 22.6986C92.9221 21.6594 90.7283 21.1347 87.6874 21.1347C87.0086 21.1347 85.9949 21.1347 84.48 21.306H84.4806ZM111.009 25.4731C111.009 31.5358 113.202 34.4708 117.424 34.4708C119.284 34.4708 120.809 33.785 121.99 32.2211C123.17 30.4966 123.682 28.4074 123.682 25.4724C123.682 19.4096 121.645 16.4639 117.424 16.4639C115.397 16.4639 113.882 17.3312 112.691 18.885C111.678 20.4489 111.009 22.5267 111.009 25.4731H111.009ZM133.305 50.0674L130.944 47.1217L133.305 44.3473C133.817 44.3473 134.319 44.3473 134.997 44.3473C135.844 44.176 136.523 44.176 137.192 44.0047C138.373 43.662 139.051 42.9654 139.564 42.6228C139.898 42.0982 140.065 41.7555 140.232 41.2302C140.399 40.8876 140.577 40.7163 140.399 40.191C140.399 38.4558 139.731 36.206 138.55 33.089L130.098 11.783H136.523L143.952 30.6679L150.545 11.783H157.127L145.133 44.3466L144.966 44.518C144.966 44.518 142.26 50.4094 133.306 50.0668L133.305 50.0674ZM85.3272 42.9654C86.5079 42.9654 87.5209 44.0047 87.5209 45.2146C87.5209 46.5964 86.5073 47.6464 85.3272 47.4643C84.136 47.4643 83.1229 46.4251 83.1229 45.2146C83.1229 44.004 84.1366 42.9654 85.3272 42.9654ZM11.8246 78.8181C13.0053 78.8181 14.019 79.8573 14.019 81.078C14.019 82.2885 13.0053 83.3271 11.8246 83.3271C10.4768 83.3271 9.63083 82.2879 9.63083 80.8953C9.63083 79.6848 10.4768 78.6462 11.8246 78.8175V78.8181Z"
      fill="white"
    />
  </symbol>

  <symbol id="triangle" viewBox="0 0 8 7" width="8" height="7">
    <path d="M4.125 6.75L7.5891 0.75H0.660898L4.125 6.75Z" fill="#D29C4E" />
  </symbol>
</svg>
