<svg width="160" height="88" viewBox="0 0 160 88" fill="none" xmlns="http://www.w3.org/2000/svg">
  <path
    fill-rule="evenodd"
    clip-rule="evenodd"
    d="M97.1561 41.7555C98.671 44.7013 107.97 44.3479 109.997 44.3479L112.191 47.1223L110.498 50.0681C104.083 50.0681 100.196 47.6363 94.4499 46.7797C90.8979 46.0837 64.8817 63.2329 60.1489 66.0073C51.3622 70.8488 20.279 88.1806 9.63268 87.9986C8.78674 87.9986 8.28486 87.8273 7.60601 87.4846C2.37133 85.0528 3.2074 79.1721 5.91353 76.3977C6.59237 75.5298 7.09426 75.3585 8.1079 75.0158L44.6027 61.3264C50.015 59.0772 76.3752 48.3329 80.4291 42.7948L60.4837 40.5349L60.3166 49.3721L0 41.0596L0.511753 25.645L92.9252 40.0203L90.2295 40.7169C93.2698 47.2943 89.5507 39.6777 97.1567 41.7562H97.1573L97.1561 41.7555ZM0.678227 20.0961V19.9248V18.543C1.01241 13.862 2.37071 9.87707 4.89927 6.58872C7.77249 2.947 11.6593 1.03986 16.3921 1.22191C21.6268 1.22191 25.6808 2.94637 28.554 6.24547C31.2601 9.70513 32.6079 14.3867 32.6079 20.4495C32.6079 23.2132 32.4408 25.645 31.762 27.8941L25.1795 26.8549C25.6808 24.9484 25.8485 22.8699 25.8485 20.4495C25.8485 11.6123 22.8082 7.10264 16.3928 7.10264C13.5195 7.10264 11.3252 8.14187 9.79977 10.5731C8.45195 12.6509 7.60601 15.2432 7.43831 18.371C7.43831 19.9242 7.09364 22.6986 7.26073 24.0805L0.511137 22.8699L0.678227 20.2668V20.0955V20.0961ZM120.81 11.6123C119.797 11.2697 118.606 11.2697 117.425 11.2697C116.244 11.2697 115.231 11.2697 114.218 11.6123C111.856 12.1262 109.652 13.3475 108.137 15.2439C105.765 17.847 104.585 21.3067 104.585 25.4737C104.585 29.8013 105.599 33.2609 107.97 35.8641C110.164 38.4564 113.372 39.849 117.426 39.849C121.313 39.849 124.52 38.4564 126.892 35.8641C129.086 33.2609 130.267 29.8013 130.267 25.4737C130.267 20.9641 129.086 17.5038 126.892 15.0726C125.367 13.1661 123.34 12.1268 120.811 11.6129L120.81 11.6123ZM104.585 6.06342C105.096 5.7208 105.263 5.20625 105.263 4.68158C105.263 3.47104 104.417 2.60376 103.237 2.60376H100.363V5.7208C100.531 5.89211 100.531 6.24547 100.698 6.41741C101.042 7.2847 101.377 8.49523 101.544 9.53446H103.237C104.585 9.53446 105.43 8.83848 105.43 7.62795C105.43 6.93134 105.096 6.41741 104.585 6.06405V6.06342ZM102.056 5.37755V4.16702H103.07C103.404 4.16702 103.571 4.33833 103.571 4.68094C103.571 5.02356 103.404 5.37692 103.07 5.37692H102.056V5.37755ZM102.056 8.14124V6.7594H103.07C103.571 6.7594 103.739 7.10201 103.739 7.45537C103.739 7.79799 103.571 8.14124 103.07 8.14124H102.056ZM112.023 9.53383L109.651 2.60312H108.304L105.765 9.53383H107.624L107.969 8.4946H109.996L110.33 9.53383H112.023H112.023ZM109.484 7.10201H108.304L108.983 5.20625L109.484 7.10201ZM118.104 9.53383L116.579 6.7594C116.923 6.58809 117.09 6.41678 117.257 6.24547C117.425 5.89211 117.592 5.37755 117.592 4.85288C117.592 3.64235 116.746 2.60376 115.398 2.60376H112.692V9.53446H114.384V6.93134H114.896L116.077 9.53446H118.103L118.104 9.53383ZM114.384 5.54886V4.16702H115.23C115.731 4.16702 116.076 4.50963 116.076 4.85288C116.076 5.20625 115.731 5.54886 115.23 5.54886H114.384ZM123.004 6.06279C123.505 5.72017 123.85 5.20561 123.85 4.68094C123.85 3.47041 123.004 2.60312 121.646 2.60312H118.783V9.53383H121.823C123.004 9.53383 123.85 8.83785 123.85 7.62731C123.85 6.9307 123.683 6.41678 123.004 6.06342V6.06279ZM120.465 5.37692V4.16639H121.479C121.99 4.16639 122.157 4.33769 122.157 4.68031C122.157 5.02293 121.99 5.37629 121.479 5.37629H120.465V5.37692ZM120.465 8.14061V6.75876H121.646C121.99 6.75876 122.157 7.10138 122.157 7.45474C122.157 7.79736 121.99 8.14061 121.646 8.14061H120.465ZM129.586 9.53319V8.14061H126.723V6.93007H129.252V5.37692H126.723V4.15564H129.586V2.60249H125.031V9.53319H129.586V9.53319ZM136.011 9.53319L134.663 6.75876C134.997 6.58745 134.997 6.41615 135.165 6.24484C135.499 5.89148 135.676 5.37692 135.676 4.85225C135.676 3.64172 134.83 2.60312 133.472 2.60312H130.776V9.53383H132.458V6.9307H132.97L134.151 9.53383H136.01L136.011 9.53319ZM132.459 5.54823V4.16639H133.305C133.817 4.16639 133.984 4.509 133.984 4.85225C133.984 5.20561 133.817 5.54823 133.305 5.54823H132.459ZM140.232 4.509L141.246 3.46978C140.912 3.11641 140.745 2.94511 140.399 2.7738C140.065 2.60249 139.563 2.60249 139.051 2.60249C137.536 2.60249 136.523 3.46978 136.523 4.85162C136.523 5.89085 137.192 6.58682 138.372 6.75813L139.218 6.92944C139.563 6.92944 139.73 7.10075 139.73 7.45411C139.73 7.96803 139.385 8.13997 138.883 8.13997C138.371 8.13997 138.037 8.13997 137.702 7.96867C137.535 7.79736 137.535 7.79736 137.358 7.62605L136.177 8.66528C136.689 9.1792 136.856 9.1792 137.191 9.36189C137.535 9.5332 138.037 9.7045 138.716 9.7045C140.398 9.7045 141.412 8.83722 141.412 7.45537C141.412 6.24484 140.91 5.54886 139.563 5.37755L138.716 5.20625C138.371 5.20625 138.204 5.02419 138.204 4.68158C138.204 4.33896 138.549 4.1569 139.05 4.1569C139.384 4.1569 139.73 4.1569 139.897 4.1569C140.064 4.33896 140.064 4.33896 140.231 4.51027L140.232 4.509ZM147.504 9.53319V2.60249H145.979V5.37692H144.119V2.60249H142.437V9.53319H144.119V6.75876H145.979V9.53319H147.504ZM153.752 6.06279V5.54886C153.752 4.50964 153.585 3.81366 153.073 3.29973C152.572 2.77506 152.059 2.60376 151.213 2.60376C150.544 2.60376 149.865 2.77506 149.364 3.29973C148.852 3.9856 148.685 4.51027 148.685 5.89211V6.24547C148.685 7.10264 148.685 8.14124 149.364 8.83785C149.865 9.36252 150.545 9.70513 151.213 9.70513C152.059 9.70513 152.739 9.36252 153.073 8.83785C153.919 8.14187 153.752 7.10264 153.752 6.06342V6.06279ZM150.544 4.33833C150.711 4.16702 151.046 4.16702 151.213 4.16702C151.558 4.16702 151.725 4.16702 151.892 4.33833C152.059 4.68094 152.226 5.20561 152.226 5.89148V6.24484C152.226 7.28407 152.059 7.62668 151.892 7.79799C151.725 7.9693 151.558 8.14061 151.213 8.14061C151.046 8.14061 150.712 7.9693 150.544 7.79799C150.377 7.62668 150.377 7.28407 150.377 6.24484V5.89148C150.377 5.20561 150.377 4.68094 150.544 4.33833ZM154.932 2.60312V9.53383H156.625V7.10201H157.639C158.986 7.10201 160 6.24484 160 4.85288C160 3.64235 158.986 2.60376 157.639 2.60376H154.932V2.60312ZM156.625 5.54886V4.16702H157.471C157.973 4.16702 158.317 4.50963 158.317 4.85288C158.317 5.20625 157.973 5.54886 157.471 5.54886H156.625ZM37.3389 1.5639L43.5866 0V29.6287H43.4195L37.3389 28.7614V1.5639ZM48.6542 29.9719C48.4871 28.7614 48.32 27.3688 48.32 25.987C48.32 21.6594 49.6678 18.017 52.0398 15.2432C54.5683 12.6509 57.6191 11.269 61.3284 11.269C63.3551 11.269 65.2153 11.6116 66.9078 12.4796V1.5639L73.1555 0V34.2995L66.9078 33.2603V18.371C65.5599 17.1498 64.2016 16.6358 62.6867 16.6358C60.1477 16.6358 58.2881 17.5031 56.9403 19.0569C55.582 20.6208 54.9136 22.8706 54.9136 25.8163C54.9136 27.7228 55.2478 29.458 55.9272 30.6686C56.0943 31.0112 56.2614 31.3544 56.5962 31.7078H56.4291L48.8336 30.4972L48.656 29.9726L48.6542 29.9719ZM77.3864 34.8242L77.8876 1.5639C82.7875 1.39259 86.3402 1.22128 88.3669 1.22128C92.0762 1.22128 95.1269 2.07845 97.3207 3.81366C99.3474 5.54886 100.528 7.79862 100.528 10.9157C100.528 13.8614 99.0027 16.2825 95.7953 18.0177C100.361 19.5816 102.722 23.0412 102.722 28.0654C102.722 31.5358 101.375 34.2995 98.8356 36.2067C98.3343 36.56 97.4878 37.4172 96.8083 37.9419L95.1263 37.5993L81.0944 35.5107L77.3851 34.8248L77.3864 34.8242ZM84.4806 6.9307V15.9392C85.4943 16.1105 86.5073 16.1105 87.5209 16.1105C91.9091 16.1105 93.9363 14.5574 93.9363 11.269C93.9363 8.32329 92.0768 6.9307 88.2004 6.9307C87.1763 6.9307 85.8284 6.9307 84.4806 6.9307ZM84.4806 21.306V33.6137C85.6613 33.785 86.8421 33.785 87.688 33.785C90.5612 33.785 92.5885 33.2603 93.9357 32.2211C95.294 31.3538 95.9624 29.6287 95.9624 27.3688C95.9624 25.1197 95.2934 23.5659 94.1133 22.6986C92.9221 21.6594 90.7283 21.1347 87.6874 21.1347C87.0086 21.1347 85.9949 21.1347 84.48 21.306H84.4806ZM111.009 25.4731C111.009 31.5358 113.202 34.4708 117.424 34.4708C119.284 34.4708 120.809 33.785 121.99 32.2211C123.17 30.4966 123.682 28.4074 123.682 25.4724C123.682 19.4096 121.645 16.4639 117.424 16.4639C115.397 16.4639 113.882 17.3312 112.691 18.885C111.678 20.4489 111.009 22.5267 111.009 25.4731H111.009ZM133.305 50.0674L130.944 47.1217L133.305 44.3473C133.817 44.3473 134.319 44.3473 134.997 44.3473C135.844 44.176 136.523 44.176 137.192 44.0047C138.373 43.662 139.051 42.9654 139.564 42.6228C139.898 42.0982 140.065 41.7555 140.232 41.2302C140.399 40.8876 140.577 40.7163 140.399 40.191C140.399 38.4558 139.731 36.206 138.55 33.089L130.098 11.783H136.523L143.952 30.6679L150.545 11.783H157.127L145.133 44.3466L144.966 44.518C144.966 44.518 142.26 50.4094 133.306 50.0668L133.305 50.0674ZM85.3272 42.9654C86.5079 42.9654 87.5209 44.0047 87.5209 45.2146C87.5209 46.5964 86.5073 47.6464 85.3272 47.4643C84.136 47.4643 83.1229 46.4251 83.1229 45.2146C83.1229 44.004 84.1366 42.9654 85.3272 42.9654ZM11.8246 78.8181C13.0053 78.8181 14.019 79.8573 14.019 81.078C14.019 82.2885 13.0053 83.3271 11.8246 83.3271C10.4768 83.3271 9.63083 82.2879 9.63083 80.8953C9.63083 79.6848 10.4768 78.6462 11.8246 78.8175V78.8181Z"
    fill="white"
  />
</svg>
