<svg width="257" height="50" viewBox="0 0 257 50" fill="none" xmlns="http://www.w3.org/2000/svg">
<path d="M248.618 2.19076L255.203 8.65183V41.4938L248.618 47.9546H8.95686L2.3719 41.4938V37.1143L3.70985 36.4103V40.9502L9.51093 46.6419H248.064L253.865 40.9502V9.19519L248.064 3.50374H9.51093L3.70985 9.19519V36.4103L2.3719 37.1143V8.65183L8.95686 2.19076H248.618Z" fill="#D6A354"/>
<path d="M254.534 0.65918L252.304 2.84734L254.534 5.0355L256.764 2.84734L254.534 0.65918Z" fill="#D6A354"/>
<path d="M254.534 45.1101L252.304 47.2983L254.534 49.4864L256.764 47.2983L254.534 45.1101Z" fill="#D6A354"/>
<path d="M2.23018 0.65918L0 2.84734L2.23018 5.0355L4.46037 2.84734L2.23018 0.65918Z" fill="#D6A354"/>
<path d="M2.23018 45.1101L0 47.2983L2.23018 49.4864L4.46037 47.2983L2.23018 45.1101Z" fill="#D6A354"/>
</svg>
